<svg xmlns="http://www.w3.org/2000/svg" xmlns:svg="http://www.w3.org/2000/svg" id="svg15" width="256" height="256" version="1.1" viewBox="0 0 256 256"><metadata id="metadata19"/><title id="title2">256x256/git-commit-amend-symbolic</title><desc id="desc4">Created with Sketch.</desc><g id="VCS2-Clement-Colored" fill="none" fill-rule="evenodd" stroke="none" stroke-width="1"><g id="256x256/git-commit-amend-symbolic" fill="#000"><g id="commit" transform="translate(25.000000, 69.000000)"><path id="Shape" d="M159.797143,44.1959135 C153.175714,18.8569231 130.368571,0 103,0 C75.6314286,0 52.8242857,18.8569231 46.2028571,44.1959135 L0,44.1959135 L0,73.6598558 L46.2028571,73.6598558 C52.8242857,98.9988462 75.6314286,117.855769 103,117.855769 C130.368571,117.855769 153.175714,98.9988462 159.797143,73.6598558 L206,73.6598558 L206,44.1959135 L159.797143,44.1959135 L159.797143,44.1959135 Z M103,91.3382212 C85.0485714,91.3382212 70.6285714,76.9008894 70.6285714,58.9278846 C70.6285714,40.9548798 85.0485714,26.5175481 103,26.5175481 C120.951429,26.5175481 135.371429,40.9548798 135.371429,58.9278846 C135.371429,76.9008894 120.951429,91.3382212 103,91.3382212 L103,91.3382212 Z"/></g><g style="font-weight:400;font-size:144px;font-family:ArialRoundedMTBold,'Arial Rounded MT Bold'" id="+" aria-label="+" transform="translate(-14,-16)"><path id="path826" d="m 225.23437,173.71875 v 39.16406 h 39.16407 v 11.95313 H 225.23437 V 264 h -11.8125 v -39.16406 h -39.16406 v -11.95313 h 39.16406 v -39.16406 z"/></g></g></g></svg>