<svg xmlns="http://www.w3.org/2000/svg" xmlns:svg="http://www.w3.org/2000/svg" xmlns:xlink="http://www.w3.org/1999/xlink" id="svg249" width="16" height="16" version="1.1"><defs id="defs3"><linearGradient id="linearGradient5816" x1="-26.754" x2="-24.75" y1="11.566" y2="9.688" gradientUnits="userSpaceOnUse" xlink:href="#linearGradient3656"/><linearGradient id="linearGradient5836" x1="-18.589" x2="-28.789" y1="11.053" y2="14.07" gradientTransform="matrix(0.9223058,0,0,0.9185751,-92.447368,61.3257)" gradientUnits="userSpaceOnUse" xlink:href="#linearGradient3520"/><radialGradient id="radialGradient5839" cx="-26.305" cy="10.108" r="7.042" fx="-26.305" fy="10.108" gradientTransform="matrix(0.4073362,-0.2798276,0.7510293,1.0932492,-115.18484,51.56213)" gradientUnits="userSpaceOnUse" xlink:href="#linearGradient3671"/><linearGradient id="linearGradient6469"><stop id="stop6471" offset="0" style="stop-color:#000;stop-opacity:1"/><stop id="stop6473" offset="1" style="stop-color:#000;stop-opacity:0"/></linearGradient><linearGradient id="linearGradient6475" x1="58.282" x2="61.181" y1="70.752" y2="67.799" gradientTransform="translate(-180,0)" gradientUnits="userSpaceOnUse" xlink:href="#linearGradient6469"/><radialGradient id="radialGradient5810" cx="4" cy="5.3" r="17" fx="4" fy="5.3" gradientTransform="matrix(1.8860258,0,0,1.1764706,-3.5441033,-4.2352941)" gradientUnits="userSpaceOnUse" xlink:href="#linearGradient3741"/><linearGradient id="linearGradient5845" x1="-47.5" x2="-62.75" y1="49.021" y2="-22.502" gradientTransform="translate(-90,60)" gradientUnits="userSpaceOnUse" xlink:href="#linearGradient3613"/><radialGradient id="radialGradient5843" cx="-30.25" cy="35.357" r="18" fx="-30.25" fy="35.357" gradientTransform="matrix(3.9957492,0,0,1.9350367,0.62141,28.832578)" gradientUnits="userSpaceOnUse" xlink:href="#linearGradient3683"/><linearGradient id="linearGradient5804" x1="25.058" x2="25.058" y1="47.028" y2="39.999" gradientUnits="userSpaceOnUse" xlink:href="#linearGradient3702"/><radialGradient id="radialGradient5802" cx="4.993" cy="43.5" r="2.5" fx="4.993" fy="43.5" gradientTransform="matrix(2.003784,0,0,1.4,-20.01187,-104.4)" gradientUnits="userSpaceOnUse" xlink:href="#linearGradient3688"/><radialGradient id="radialGradient5800" cx="4.993" cy="43.5" r="2.5" fx="4.993" fy="43.5" gradientTransform="matrix(2.003784,0,0,1.4,27.98813,-17.4)" gradientUnits="userSpaceOnUse" xlink:href="#linearGradient3688"/><linearGradient id="linearGradient5798" x1="25.058" x2="25.058" y1="47.028" y2="39.999" gradientUnits="userSpaceOnUse" xlink:href="#linearGradient3702"/><radialGradient id="radialGradient5796" cx="4.993" cy="43.5" r="2.5" fx="4.993" fy="43.5" gradientTransform="matrix(2.003784,0,0,1.4,-20.01187,-104.4)" gradientUnits="userSpaceOnUse" xlink:href="#linearGradient3688"/><radialGradient id="radialGradient5794" cx="4.993" cy="43.5" r="2.5" fx="4.993" fy="43.5" gradientTransform="matrix(2.003784,0,0,1.4,27.98813,-17.4)" gradientUnits="userSpaceOnUse" xlink:href="#linearGradient3688"/><linearGradient id="linearGradient3656"><stop id="stop3658" offset="0" style="stop-color:#fff;stop-opacity:1"/><stop id="stop3660" offset="1" style="stop-color:#fff;stop-opacity:0"/></linearGradient><linearGradient id="linearGradient3520"><stop id="stop3522" offset="0" style="stop-color:#000;stop-opacity:.41295546"/><stop id="stop3524" offset="1" style="stop-color:#000;stop-opacity:0"/></linearGradient><linearGradient id="linearGradient3671"><stop id="stop3673" offset="0" style="stop-color:#fff;stop-opacity:1"/><stop id="stop3691" offset=".475" style="stop-color:#fff;stop-opacity:1"/><stop id="stop3675" offset="1" style="stop-color:#fff;stop-opacity:0"/></linearGradient><linearGradient id="linearGradient3741"><stop id="stop3743" offset="0" style="stop-color:#fff;stop-opacity:1"/><stop id="stop3745" offset="1" style="stop-color:#fff;stop-opacity:0"/></linearGradient><linearGradient id="linearGradient3613"><stop id="stop3615" offset="0" style="stop-color:#888a85;stop-opacity:1"/><stop id="stop3617" offset="1" style="stop-color:#babdb6;stop-opacity:1"/></linearGradient><linearGradient id="linearGradient3683"><stop id="stop3685" offset="0" style="stop-color:#f6f6f5;stop-opacity:1"/><stop id="stop3689" offset="1" style="stop-color:#d3d7cf;stop-opacity:1"/></linearGradient><linearGradient id="linearGradient3688"><stop id="stop3690" offset="0" style="stop-color:#000;stop-opacity:1"/><stop id="stop3692" offset="1" style="stop-color:#000;stop-opacity:0"/></linearGradient><linearGradient id="linearGradient3702"><stop id="stop3704" offset="0" style="stop-color:#000;stop-opacity:0"/><stop id="stop3710" offset=".5" style="stop-color:#000;stop-opacity:1"/><stop id="stop3706" offset="1" style="stop-color:#000;stop-opacity:0"/></linearGradient></defs><metadata id="metadata4"/><g id="layer6" transform="translate(0,-32)"><g id="g6015" transform="matrix(0.33072917,0,0,0.33072917,49.609375,12.28125)" style="display:inline"><rect id="rect5504" width="48" height="48" x="-150" y="60" style="opacity:0;fill:#000;fill-opacity:1;stroke:none;display:inline"/><g id="g5508" transform="matrix(1.0464281,0,0,0.8888889,-151.18572,65.72224)" style="opacity:.65587045;display:inline"><g id="g5511" transform="matrix(1.052632,0,0,1.285713,-1.263158,-13.42854)" style="opacity:.4"><rect id="rect5513" width="5" height="7" x="38" y="40" style="fill:url(#radialGradient5794);fill-opacity:1;stroke:none"/><rect id="rect5515" width="5" height="7" x="-10" y="-47" transform="scale(-1,-1)" style="fill:url(#radialGradient5796);fill-opacity:1;stroke:none"/><rect id="rect5517" width="28" height="7" x="10" y="40" style="fill:url(#linearGradient5798);fill-opacity:1;stroke:none"/></g></g><g id="g5519" transform="matrix(0.9548466,0,0,0.5555562,-148.98776,79.888875)" style="display:inline"><g id="g5521" transform="matrix(1.052632,0,0,1.285713,-1.263158,-13.42854)" style="opacity:.4"><rect id="rect5523" width="5" height="7" x="38" y="40" style="fill:url(#radialGradient5800);fill-opacity:1;stroke:none"/><rect id="rect5525" width="5" height="7" x="-10" y="-47" transform="scale(-1,-1)" style="fill:url(#radialGradient5802);fill-opacity:1;stroke:none"/><rect id="rect5527" width="28" height="7" x="10" y="40" style="fill:url(#linearGradient5804);fill-opacity:1;stroke:none"/></g></g><path id="path5529" d="m -141.47614,63.5 c 0,0 17.47614,0 18.97614,0 3.87705,0.07294 6.5,2.5 9,5 2.5,2.5 4.60768,5.252625 5,9 0,1.5 0,24.97614 0,24.97614 0,1.12122 -0.90264,2.02386 -2.02385,2.02386 l -30.95229,0 c -1.12122,0 -2.02386,-0.90264 -2.02386,-2.02386 l 0,-36.952282 c 0,-1.121217 0.90264,-2.023858 2.02386,-2.023858 z" style="fill:url(#radialGradient5843);fill-opacity:1;stroke:url(#linearGradient5845);stroke-width:1;stroke-miterlimit:4;display:inline"/><path id="path5531" d="M 8.53125,4 C 7.6730803,4 7,4.6730802 7,5.53125 l 0,36.9375 C 7,43.32692 7.6730802,44 8.53125,44 l 30.9375,0 C 40.326919,44 41,43.326918 41,42.46875 L 41,17.5 c 0,-1.39197 -0.486979,-4.299479 -2.34375,-6.15625 l -5,-5 C 31.799479,4.4869792 28.89197,4 27.5,4 L 8.53125,4 z" transform="translate(-150,60)" style="opacity:.68016196;fill:url(#radialGradient5810);fill-opacity:1;stroke:none;display:inline"/><path id="rect5857" d="m -138.59375,69.125 c -0.21868,0 -0.40625,0.187565 -0.40625,0.40625 0,0.218684 0.18757,0.406249 0.40625,0.40625 l 21.1875,0 c 0.21868,0 0.40625,-0.187566 0.40625,-0.40625 0,-0.218684 -0.18757,-0.40625 -0.40625,-0.40625 l -21.1875,0 z m 0.0625,1.9375 c -0.25969,0 -0.46875,0.209063 -0.46875,0.46875 0,0.259687 0.20906,0.46875 0.46875,0.46875 l 22.0625,0 c 0.25969,0 0.46875,-0.209063 0.46875,-0.46875 0,-0.259687 -0.20906,-0.46875 -0.46875,-0.46875 l -22.0625,0 z m 0,2 c -0.25969,0 -0.46875,0.209063 -0.46875,0.46875 0,0.259687 0.20906,0.46875 0.46875,0.46875 l 25.1875,0 c 0.25969,0 0.46875,-0.209063 0.46875,-0.46875 0,-0.259687 -0.20906,-0.46875 -0.46875,-0.46875 l -25.1875,0 z m 0,2 c -0.25969,0 -0.46875,0.209063 -0.46875,0.46875 0,0.259687 0.20906,0.46875 0.46875,0.46875 l 25.1875,0 c 0.25969,0 0.46875,-0.209063 0.46875,-0.46875 0,-0.259687 -0.20906,-0.46875 -0.46875,-0.46875 l -25.1875,0 z m 0,2 c -0.25969,0 -0.46875,0.209063 -0.46875,0.46875 0,0.259687 0.20906,0.46875 0.46875,0.46875 l 25.1875,0 c 0.25969,0 0.46875,-0.209063 0.46875,-0.46875 0,-0.259687 -0.20906,-0.46875 -0.46875,-0.46875 l -25.1875,0 z" style="opacity:.15;fill:url(#linearGradient6475);fill-opacity:1;fill-rule:evenodd;stroke:none;stroke-width:.99999982px;marker:none;visibility:visible;display:inline;overflow:visible"/><path id="path5533" d="m -122.5,64 c -1.38889,0 -0.0421,0.497088 1.34375,1.125 1.38582,0.627912 4.97288,3.215052 4.15625,6.875 4.32331,-0.430583 6.67913,3.122378 7,4.28125 0.32087,1.158872 1,2.607639 1,1.21875 0.0283,-3.805581 -2.84543,-6.431701 -4.84375,-8.65625 C -115.84207,66.619201 -118.84621,64.476761 -122.5,64 z" style="fill:url(#radialGradient5839);fill-opacity:1;stroke:none;display:inline"/><path id="path5535" d="m -121.39912,65.014353 c 0.9223,0 3.00844,6.195662 2.08614,10.32925 4.29496,-0.427759 8.85338,0.08818 9.31298,0.937647 -0.32087,-1.158872 -2.67669,-4.711833 -7,-4.28125 0.86466,-3.875239 -3.18657,-6.617298 -4.39912,-6.985647 z" style="opacity:.87854249;fill:url(#linearGradient5836);fill-opacity:1;stroke:none;display:inline"/><path id="path5537" d="M -51.46875,4.5 C -52.051916,4.5 -52.5,4.9480842 -52.5,5.53125 l 0,36.9375 c 0,0.583165 0.448086,1.03125 1.03125,1.03125 l 30.9375,0 c 0.583165,0 1.03125,-0.448086 1.03125,-1.03125 L -19.5,17.5 c 0,-1.279029 -0.480469,-4.105469 -2.1875,-5.8125 l -5,-5 C -28.394531,4.9804687 -31.220971,4.5 -32.5,4.5 l -18.96875,0 z" transform="translate(-90,60)" style="fill:none;stroke:url(#linearGradient5816);stroke-width:1;stroke-miterlimit:4;display:inline"/><g id="g5539" transform="matrix(0.928889,0,0,1,-148.28889,60)" style="opacity:.15;fill:#000;display:inline"><rect id="rect5549" width="28.125" height=".938" x="10" y="19.063" rx=".505" ry=".469" style="fill:#000;fill-opacity:1;fill-rule:evenodd;stroke:none;stroke-width:.99999982px;marker:none;visibility:visible;display:inline;overflow:visible"/><rect id="rect5553" width="28.125" height=".938" x="10" y="21.063" rx=".505" ry=".469" style="fill:#000;fill-opacity:1;fill-rule:evenodd;stroke:none;stroke-width:.99999982px;marker:none;visibility:visible;display:inline;overflow:visible"/><rect id="rect5555" width="28.125" height=".938" x="10" y="23.063" rx=".505" ry=".469" style="fill:#000;fill-opacity:1;fill-rule:evenodd;stroke:none;stroke-width:.99999982px;marker:none;visibility:visible;display:inline;overflow:visible"/><rect id="rect5557" width="28.125" height=".938" x="10" y="25.063" rx=".505" ry=".469" style="fill:#000;fill-opacity:1;fill-rule:evenodd;stroke:none;stroke-width:.99999982px;marker:none;visibility:visible;display:inline;overflow:visible"/><rect id="rect5559" width="28.125" height=".938" x="10" y="27.063" rx=".505" ry=".469" style="fill:#000;fill-opacity:1;fill-rule:evenodd;stroke:none;stroke-width:.99999982px;marker:none;visibility:visible;display:inline;overflow:visible"/><rect id="rect5561" width="28.125" height=".938" x="10" y="29.063" rx=".505" ry=".469" style="fill:#000;fill-opacity:1;fill-rule:evenodd;stroke:none;stroke-width:.99999982px;marker:none;visibility:visible;display:inline;overflow:visible"/><rect id="rect5563" width="28.125" height=".938" x="10" y="31.063" rx=".505" ry=".469" style="fill:#000;fill-opacity:1;fill-rule:evenodd;stroke:none;stroke-width:.99999982px;marker:none;visibility:visible;display:inline;overflow:visible"/><rect id="rect5565" width="28.125" height=".938" x="10" y="33.063" rx=".505" ry=".469" style="fill:#000;fill-opacity:1;fill-rule:evenodd;stroke:none;stroke-width:.99999982px;marker:none;visibility:visible;display:inline;overflow:visible"/><rect id="rect5567" width="28.125" height=".938" x="10" y="35.063" rx=".505" ry=".469" style="fill:#000;fill-opacity:1;fill-rule:evenodd;stroke:none;stroke-width:.99999982px;marker:none;visibility:visible;display:inline;overflow:visible"/><rect id="rect5569" width="13.813" height=".938" x="10" y="37.063" rx=".505" ry=".469" style="fill:#000;fill-opacity:1;fill-rule:evenodd;stroke:none;stroke-width:.99999982px;marker:none;visibility:visible;display:inline;overflow:visible"/></g></g></g></svg>