<svg xmlns="http://www.w3.org/2000/svg" xmlns:xlink="http://www.w3.org/1999/xlink" id="Layer_1" width="16" height="16" x="0" y="0" enable-background="new 0 0 16 16" version="1.1" viewBox="0 0 16 16" xml:space="preserve"><g><linearGradient id="SVGID_1_" x1="8" x2="8" y1="1" y2="15.001" gradientUnits="userSpaceOnUse"><stop offset="0" style="stop-color:#000;stop-opacity:.7"/><stop offset="1" style="stop-color:#000;stop-opacity:.6"/></linearGradient><path fill="url(#SVGID_1_)" d="M7.905,1C4.04,1.052,0.949,4.228,1,8.094c0.052,3.864,3.228,6.957,7.093,6.905 c3.865-0.052,6.958-3.228,6.906-7.093C14.947,4.042,11.771,0.949,7.905,1z M8.682,3.333c0.711,0,0.921,0.413,0.921,0.885 c0,0.59-0.472,1.136-1.277,1.136c-0.674,0-0.995-0.339-0.976-0.899C7.35,3.982,7.745,3.333,8.682,3.333z M6.857,12.375 c-0.486,0-0.842-0.295-0.502-1.593L6.913,8.48c0.097-0.369,0.113-0.517,0-0.517c-0.146,0-0.777,0.255-1.15,0.506L5.52,8.072 c1.183-0.988,2.543-1.567,3.126-1.567c0.486,0,0.566,0.575,0.324,1.459l-0.639,2.42c-0.113,0.428-0.064,0.575,0.049,0.575 c0.146,0,0.624-0.178,1.093-0.546l0.275,0.368C8.599,11.932,7.343,12.375,6.857,12.375z"/></g></svg>