<svg xmlns="http://www.w3.org/2000/svg" xmlns:svg="http://www.w3.org/2000/svg" xmlns:xlink="http://www.w3.org/1999/xlink" id="svg1" width="16" height="16" version="1.2"><metadata id="metadata162"/><defs id="defs3"><linearGradient id="linearGradient4734"><stop id="stop4736" offset="0" style="stop-color:#cccdbc;stop-opacity:1"/><stop id="stop4738" offset="1" style="stop-color:#b9baa4;stop-opacity:1"/></linearGradient><linearGradient id="linearGradient2339"><stop id="stop2341" offset="0" style="stop-color:#fff;stop-opacity:1"/><stop id="stop2343" offset="1" style="stop-color:#fff;stop-opacity:0"/></linearGradient><linearGradient id="linearGradient356"><stop id="stop357" offset="0" style="stop-color:#fffff3;stop-opacity:1"/><stop id="stop358" offset="1" style="stop-color:#fffff3;stop-opacity:0"/></linearGradient><linearGradient id="linearGradient311"><stop id="stop312" offset="0" style="stop-color:#cfcfc4;stop-opacity:1"/><stop id="stop335" offset=".327" style="stop-color:#cfcfc4;stop-opacity:1"/><stop id="stop313" offset="1" style="stop-color:#cfcfc4;stop-opacity:0"/></linearGradient><linearGradient id="linearGradient235"><stop id="stop236" offset="0" style="stop-color:#59594a;stop-opacity:1"/><stop id="stop237" offset="1" style="stop-color:#a2a491;stop-opacity:1"/></linearGradient><linearGradient id="linearGradient10087" x1="24.983" x2="24.983" y1="22.828" y2="8.374" gradientTransform="scale(1.068312,0.936056)" gradientUnits="userSpaceOnUse" xlink:href="#linearGradient235"/><linearGradient id="linearGradient10089" x1="32.828" x2="60.071" y1="7.921" y2="7.868" gradientTransform="scale(0.750458,1.33252)" gradientUnits="userSpaceOnUse" xlink:href="#linearGradient311"/><linearGradient id="linearGradient10091" x1="24.588" x2="24.588" y1="1.899" y2="40.859" gradientUnits="userSpaceOnUse" xlink:href="#linearGradient4734"/><linearGradient id="linearGradient10093" x1="23.643" x2="28.443" y1="12.818" y2="25.232" gradientTransform="scale(0.806859,1.239374)" gradientUnits="userSpaceOnUse" xlink:href="#linearGradient356"/><linearGradient id="linearGradient10095" x1="25.851" x2="24.996" y1="37.625" y2="25.25" gradientUnits="userSpaceOnUse" xlink:href="#linearGradient2339"/></defs><g id="g10070" transform="matrix(0.34647181,0,0,0.34714239,-0.48541104,-0.575628)"><g id="g1197" transform="matrix(0.216083,0,0,0.263095,-0.893233,-10.24236)"><path style="opacity:.04787233;fill-rule:evenodd;stroke-width:3pt" id="path1196" d="m 32.706693,164.36026 c -10.3875,0 -18.75,8.3625 -18.75,18.75 0,10.3875 8.3625,18.75 18.75,18.75 l 172.499997,0 c 10.3875,0 18.75,-8.3625 18.75,-18.75 0,-10.3875 -8.3625,-18.75 -18.75,-18.75 l -172.499997,0 z"/><path style="opacity:.04787233;fill-rule:evenodd;stroke-width:3pt" id="path1195" d="m 32.706693,165.61026 c -9.695,0 -17.5,7.805 -17.5,17.5 0,9.695 7.805,17.5 17.5,17.5 l 172.499997,0 c 9.695,0 17.5,-7.805 17.5,-17.5 0,-9.695 -7.805,-17.5 -17.5,-17.5 l -172.499997,0 z"/><path style="opacity:.04787233;fill-rule:evenodd;stroke-width:3pt" id="path1194" d="m 32.706694,166.86026 c -9.0025,0 -16.25,7.2475 -16.25,16.25 0,9.0025 7.2475,16.25 16.25,16.25 l 172.499996,0 c 9.0025,0 16.25,-7.2475 16.25,-16.25 0,-9.0025 -7.2475,-16.25 -16.25,-16.25 l -172.499996,0 z"/><path style="opacity:.04787233;fill-rule:evenodd;stroke-width:3pt" id="path1193" d="m 32.706694,168.11026 c -8.31,0 -15,6.69 -15,15 0,8.31 6.69,15 15,15 l 172.499996,0 c 8.31,0 15,-6.69 15,-15 0,-8.31 -6.69,-15 -15,-15 l -172.499996,0 z"/><path style="opacity:.04787233;fill-rule:evenodd;stroke-width:3pt" id="path1192" d="m 32.707764,169.36026 c -7.6175,0 -13.75,6.1325 -13.75,13.75 0,7.6175 6.1325,13.75 13.75,13.75 l 172.498416,0 c 7.6175,0 13.75,-6.1325 13.75,-13.75 0,-7.6175 -6.1325,-13.75 -13.75,-13.75 l -172.498416,0 z"/><path style="opacity:.04787233;fill-rule:evenodd;stroke-width:3pt" id="path1191" d="m 32.706694,170.61026 c -6.925,0 -12.5,5.575 -12.5,12.5 0,6.925 5.575,12.5 12.5,12.5 l 172.499996,0 c 6.925,0 12.5,-5.575 12.5,-12.5 0,-6.925 -5.575,-12.5 -12.5,-12.5 l -172.499996,0 z"/><path style="opacity:.04787233;fill-rule:evenodd;stroke-width:3pt" id="path1190" d="m 32.706694,171.86026 c -6.2325,0 -11.25,5.0175 -11.25,11.25 0,6.2325 5.0175,11.25 11.25,11.25 l 172.499996,0 c 6.2325,0 11.25,-5.0175 11.25,-11.25 0,-6.2325 -5.0175,-11.25 -11.25,-11.25 l -172.499996,0 z"/><path style="opacity:.04787233;fill-rule:evenodd;stroke-width:3pt" id="path1189" d="m 32.706694,173.11026 c -5.54,0 -10,4.46 -10,10 0,5.54 4.46,10 10,10 l 172.499996,0 c 5.54,0 10,-4.46 10,-10 0,-5.54 -4.46,-10 -10,-10 l -172.499996,0 z"/></g><path style="fill:url(#linearGradient10087);fill-opacity:1;fill-rule:evenodd;stroke:#555753;stroke-width:1;stroke-miterlimit:4;stroke-opacity:1" id="path895" d="m 5.4186638,5.45611 c -0.4649766,0 -0.8151104,0.2352268 -0.8151104,0.726723 l 0,33.020961 c 0,0.727146 0.487105,1.21156 1.149057,1.21156 l 37.7369536,0 c 0.665802,0 0.930308,-0.452766 0.930308,-1.08656 l 0,-28.902882 c 0,-0.5429651 -0.400287,-0.836558 -0.899058,-0.836558 l -19.109324,0 c -0.337013,0 -0.69668,-0.198426 -0.894481,-0.471287 L 20.914778,5.918058 C 20.696913,5.617519 20.272703,5.456125 19.9015,5.456125 L 5.4186638,5.45611 Z"/><path style="color:#000;display:inline;overflow:visible;visibility:visible;fill:url(#linearGradient10089);fill-opacity:1;fill-rule:evenodd;stroke:none;stroke-width:.25pt;marker:none" id="path315" d="m 5.0625,7.90625 0,28.25 0.96875,-4.375 L 6.25,9.15625 c 0,-0.7504226 0.5114657,-1.125 1.2369586,-1.125 l 11.6067914,0 c 1.561596,0 3.014848,3.1875 5.317667,3.1875 5.971619,0 19.338396,0.08759 19.338583,0 l 0,-1.03125 -19.53125,-0.125 C 22.362615,10.05062 21.088324,6.90625 19.65625,6.90625 l -13.3724164,0 c -0.8153288,0 -1.2213336,0.3541661 -1.2213336,1 z"/><path style="color:#000;display:inline;overflow:visible;visibility:visible;fill:url(#linearGradient10091);fill-opacity:1;fill-rule:evenodd;stroke:#555753;stroke-width:.99999988;stroke-linecap:butt;stroke-linejoin:round;stroke-miterlimit:4;stroke-dashoffset:0;stroke-opacity:1;marker:none" id="rect337" d="m 7.6864537,16.296282 7.9333453,0 c 0.741734,0 1.36797,-0.380811 1.687167,-0.882004 0.136743,-0.214709 1.267982,-2.125728 1.357674,-2.256226 0.298787,-0.434724 0.772917,-0.758916 1.341982,-0.758916 l 23.042233,0 c 0.802837,0 1.449163,0.643789 1.449163,1.443474 l 0,25.072849 c 0,0.799684 -0.646326,1.443473 -1.449163,1.443473 l -36.9209466,0 c -0.8028359,0 -1.4491623,-0.643789 -1.4491623,-1.443473 l 0,-19.433555 c 0,-1.974365 1.1403162,-3.185622 3.0077076,-3.185622 z"/><path style="color:#000;display:inline;overflow:visible;visibility:visible;fill:url(#linearGradient10093);fill-opacity:1;fill-rule:evenodd;stroke:none;stroke-width:.25pt;marker:none" id="path349" d="m 20.5,13.75 c -0.646419,0 -1.00904,0.281698 -1.375,0.75 -0.36596,0.468302 -0.781498,1.171815 -1.0625,1.71875 -0.281002,0.546935 -0.569091,1.054169 -0.84375,1.40625 -0.274659,0.352081 -0.489583,0.5 -0.71875,0.5 -1.25,0 -9.1571699,0 -9.6571699,0 -0.4583333,0 -0.8354702,0.230519 -1.15625,0.53125 -0.3207798,0.300731 -0.59375,0.70625 -0.59375,1.21875 1e-7,0.624998 0,19.375 0,19.375 l 1,0 c 0,0 1e-7,-18.749998 0,-19.375 0,-0.1125 0.1020298,-0.331981 0.28125,-0.5 0.1792202,-0.168019 0.4270834,-0.25 0.46875,-0.25 0.5,0 8.4071699,0 9.6571699,0 0.645833,0 1.134731,-0.406768 1.5,-0.875 0.365269,-0.468232 0.656559,-1.046935 0.9375,-1.59375 0.280941,-0.546815 0.631167,-1.179239 0.90625,-1.53125 0.275083,-0.352011 0.425439,-0.375 0.65625,-0.375 1.216667,0 23.25,0.125 23.25,0.125 l 0,-1 c 0,0 -21.966667,-0.125 -23.25,-0.125 z"/><rect style="color:#000;display:inline;overflow:visible;visibility:visible;fill:#fffffd;fill-opacity:1;fill-rule:evenodd;stroke:none;stroke-width:.25pt;marker:none" id="rect459" width="1.25" height="1.25" x="5.529" y="7.36" rx="1.443" ry="1.25"/><rect style="color:#000;display:inline;overflow:visible;visibility:visible;opacity:.2857143;fill:none;stroke:url(#linearGradient10095);stroke-width:1.00000024;stroke-linecap:square;stroke-linejoin:round;stroke-miterlimit:4;stroke-dasharray:none;stroke-dashoffset:0;stroke-opacity:1;marker:none" id="rect2337" width="37.958" height="23.625" x="5.538" y="15.75" rx=".438" ry=".438"/></g><text style="font-style:normal;font-weight:400;font-size:59.72560501px;line-height:125%;font-family:sans-serif;letter-spacing:0;word-spacing:0;fill:#000;fill-opacity:1;stroke:none;stroke-width:1px;stroke-linecap:butt;stroke-linejoin:miter;stroke-opacity:1" id="text3438" x="5.016" y="12.829" transform="scale(1.0882962,0.91886749)" xml:space="preserve"><tspan id="tspan3440" x="5.016" y="12.829" style="font-style:normal;font-variant:normal;font-weight:700;font-stretch:normal;font-size:7.46570063px;font-family:sans-serif;-inkscape-font-specification:'sans-serif Bold'">L</tspan></text></svg>