<svg xmlns="http://www.w3.org/2000/svg" xmlns:svg="http://www.w3.org/2000/svg" xmlns:xlink="http://www.w3.org/1999/xlink" id="svg17684" width="16" height="16" version="1.1"><metadata id="metadata17691"/><defs id="defs17689"><linearGradient id="linearGradient6240"><stop style="stop-color:#fff;stop-opacity:1" id="stop6242" offset="0"/><stop style="stop-color:#fff;stop-opacity:0" id="stop6244" offset="1"/></linearGradient><linearGradient id="linearGradient11400"><stop style="stop-color:#000;stop-opacity:1" id="stop11402" offset="0"/><stop style="stop-color:#000;stop-opacity:0" id="stop11404" offset="1"/></linearGradient><linearGradient id="linearGradient5233"><stop style="stop-color:#729fcf;stop-opacity:1" id="stop5235" offset="0"/><stop style="stop-color:#326194;stop-opacity:1" id="stop5237" offset="1"/></linearGradient><linearGradient id="linearGradient5137"><stop style="stop-color:#eeeeec;stop-opacity:1" id="stop5139" offset="0"/><stop style="stop-color:#e6e6e3;stop-opacity:1" id="stop5141" offset="1"/></linearGradient><linearGradient id="linearGradient18164"><stop style="stop-color:#eeeeec;stop-opacity:1" id="stop18166" offset="0"/><stop style="stop-color:#e6e6e3;stop-opacity:1" id="stop18168" offset="1"/></linearGradient><linearGradient id="linearGradient5225"><stop style="stop-color:black;stop-opacity:1" id="stop5227" offset="0"/><stop style="stop-color:black;stop-opacity:0" id="stop5229" offset="1"/></linearGradient><linearGradient id="linearGradient8291"><stop style="stop-color:#000;stop-opacity:1" id="stop8293" offset="0"/><stop style="stop-color:#000;stop-opacity:0" id="stop8295" offset="1"/></linearGradient><linearGradient id="linearGradient8381"><stop id="stop8383" offset="0" style="stop-color:#f57900;stop-opacity:1"/><stop id="stop8385" offset="1" style="stop-color:#f57900;stop-opacity:0"/></linearGradient><linearGradient id="linearGradient7416"><stop id="stop7418" offset="0" style="stop-color:#ce5c00;stop-opacity:1"/><stop id="stop7420" offset="1" style="stop-color:#f57900;stop-opacity:0"/></linearGradient><linearGradient id="linearGradient8404"><stop style="stop-color:#fcaf3e;stop-opacity:1" id="stop8406" offset="0"/><stop style="stop-color:#fcaf3e;stop-opacity:0" id="stop8408" offset="1"/></linearGradient><linearGradient id="linearGradient8392"><stop style="stop-color:#fff;stop-opacity:1" id="stop8394" offset="0"/><stop style="stop-color:#fff;stop-opacity:0" id="stop8396" offset="1"/></linearGradient><radialGradient id="radialGradient18906" cx="23.938" cy="42.688" r="23.76" fx="23.938" fy="42.688" gradientTransform="matrix(1,0,0,0.24763,0,32.1168)" gradientUnits="userSpaceOnUse" xlink:href="#linearGradient5225"/><linearGradient id="linearGradient18908" x1="31.743" x2="31.861" y1="37.842" y2="43.826" gradientTransform="matrix(0.24011299,0,0,0.24011299,3.38983,3.8100943)" gradientUnits="userSpaceOnUse" xlink:href="#linearGradient5137"/><linearGradient id="linearGradient18910" x1="17.248" x2="39.904" y1="6.376" y2="38.876" gradientTransform="matrix(0.24011299,0,0,0.24011299,3.38983,3.8100943)" gradientUnits="userSpaceOnUse" xlink:href="#linearGradient5137"/><radialGradient id="radialGradient18912" cx="24.006" cy="32.997" r="19" fx="24.006" fy="32.997" gradientTransform="matrix(0.29597144,0,0,0.18690203,2.048886,4.3273882)" gradientUnits="userSpaceOnUse" xlink:href="#linearGradient5233"/><linearGradient id="linearGradient18914" x1="23.155" x2="23.529" y1="34.573" y2="40.22" gradientTransform="matrix(0.24011299,0,0,0.24011299,3.38983,3.8100942)" gradientUnits="userSpaceOnUse" xlink:href="#linearGradient11400"/><linearGradient id="linearGradient18916" x1="20.157" x2="20.157" y1="5.1" y2="26.039" gradientTransform="matrix(0.24011299,0,0,0.24011299,3.38983,3.8100942)" gradientUnits="userSpaceOnUse" xlink:href="#linearGradient6240"/><radialGradient id="radialGradient19030" cx="22.738" cy="41.194" r="14.738" fx="22.738" fy="41.194" gradientTransform="matrix(1,0,0,0.2458842,0,31.065119)" gradientUnits="userSpaceOnUse" xlink:href="#linearGradient8291"/><linearGradient id="linearGradient19032" x1="35.267" x2="37.3" y1="32.444" y2="24.135" gradientTransform="translate(-60,0)" gradientUnits="userSpaceOnUse" xlink:href="#linearGradient8381"/><linearGradient id="linearGradient19034" x1="34.825" x2="35.532" y1="29.262" y2="24.224" gradientTransform="translate(-60,0)" gradientUnits="userSpaceOnUse" xlink:href="#linearGradient7416"/><linearGradient id="linearGradient19036" x1="17.604" x2="15.337" y1="45.975" y2="35.729" gradientUnits="userSpaceOnUse" xlink:href="#linearGradient8404"/><linearGradient id="linearGradient19038" x1="36.063" x2="36.5" y1="28.438" y2="25.063" gradientUnits="userSpaceOnUse" xlink:href="#linearGradient8392"/><linearGradient id="linearGradient19040" x1="36.063" x2="36.5" y1="28.438" y2="25.063" gradientTransform="translate(-60,0)" gradientUnits="userSpaceOnUse" xlink:href="#linearGradient8392"/></defs><g id="g18257" transform="matrix(1.0587933,0,0,1.0587933,0.17392976,-0.32608772)"><rect id="rect4784" width="11.525" height="11.525" x="3.39" y="3.81" style="fill:none;stroke:none"/><path id="path13582" d="m 47.69706,42.6875 c 0,3.249411 -10.637518,5.883578 -23.75956,5.883578 -13.122042,0 -23.75955963,-2.634167 -23.75955963,-5.883578 0,-3.249411 10.63751763,-5.883578 23.75955963,-5.883578 13.122042,0 23.75956,2.634167 23.75956,5.883578 z" transform="matrix(0.2324882,0,0,0.20740889,3.7374252,5.2739027)" style="opacity:.4;fill:url(#radialGradient18906);fill-opacity:1;fill-rule:evenodd;stroke:none"/><path id="path9222" d="m 6.8415697,12.342113 c 0,0 0.2921879,1.184862 -0.9259547,1.195985 C 5.3320741,13.5434 5.4516017,14.50699 5.4516017,14.50699 L 12.85824,14.4995 c 0,0 0.100472,-0.935327 -0.485561,-0.946293 -1.197556,-0.02213 -0.914957,-1.226117 -0.914957,-1.226117 l -4.6161523,0.01506 z" style="color:#000;fill:url(#linearGradient18908);fill-opacity:1;fill-rule:evenodd;stroke:#888a85;stroke-width:.24011301;stroke-linecap:butt;stroke-linejoin:miter;stroke-miterlimit:4;stroke-opacity:1;stroke-dasharray:none;stroke-dashoffset:0;marker:none;visibility:visible;display:inline;overflow:visible"/><path id="rect5040" d="m 4.563653,4.6453119 9.155228,0 c 0.486258,0 0.840631,0.3427985 0.840631,0.8706836 l 0.0026,6.2918815 c 0,0.406288 -0.126864,0.531906 -0.488548,0.531906 l -9.8356686,-0.0045 c -0.2831586,-0.0069 -0.484691,-0.118775 -0.4884933,-0.484862 l 0.00362,-6.3794596 c 0,-0.4259184 0.3696322,-0.8256036 0.8105777,-0.8256036 z" style="fill:url(#linearGradient18910);fill-opacity:1;fill-rule:evenodd;stroke:#888a85;stroke-width:.24011301;stroke-linecap:butt;stroke-linejoin:miter;stroke-miterlimit:4;stroke-opacity:1"/><rect id="rect9208" width="8.884" height="5.522" x="4.712" y="5.611" style="fill:url(#radialGradient18912);fill-opacity:1;fill-rule:evenodd;stroke:#204a87;stroke-width:.24011301px;stroke-linecap:butt;stroke-linejoin:miter;stroke-opacity:1"/><path id="path5145" d="m 4.625,5.53125 0,5.9375 9.0625,0 0,-5.9375 -9.0625,0 z" xlink:href="#rect5040" style="fill:none;stroke:#fff;stroke-width:1;stroke-linecap:butt;stroke-linejoin:miter;stroke-miterlimit:4;stroke-opacity:1"/><path id="path10672" d="m 6.749529,12.463578 c 0.020089,0.521657 -0.068034,0.699076 -0.3922548,0.882471 l 5.6703648,0.311503 c -0.227872,-0.280603 -0.559322,-0.704331 -0.468927,-1.19774 l -4.809183,0.0038 z" style="opacity:.6;fill:url(#linearGradient18914);fill-opacity:1;fill-rule:evenodd;stroke:none"/><path id="path4073" d="m 4.836158,5.738531 0,4.323917 c 3.9485247,-0.3251725 5.42624,-2.4281229 8.636535,-2.6478342 l 0,-1.6836157 -8.636535,0.00753 z" style="opacity:.75;fill:url(#linearGradient18916);fill-opacity:1;fill-rule:evenodd;stroke:none"/><path id="path6575" d="m 5.7890694,13.773838 c 1.6103645,4.8e-4 6.6743696,0 6.6743696,0" style="fill:none;stroke:#8d8d8f;stroke-width:.24011301px;stroke-linecap:round;stroke-linejoin:miter;stroke-opacity:.43902438"/><path style="fill:none;stroke:#fff;stroke-width:.24011301px;stroke-linecap:round;stroke-linejoin:miter;stroke-opacity:1" id="path8029" d="m 5.7064233,14.015842 c 1.6103637,4.8e-4 6.8960117,0 6.8960117,0"/></g><g id="g9750" transform="matrix(-0.37837841,0,0,0.37858784,40.693051,-54.370551)"><path id="path9752" d="m 37.476659,41.194096 c 0,2.001437 -6.598575,3.623922 -14.73833,3.623922 -8.139755,0 -14.73833,-1.622485 -14.73833,-3.623922 0,-2.001437 6.598575,-3.623923 14.73833,-3.623923 8.139755,0 14.73833,1.622486 14.73833,3.623923 z" transform="matrix(1.2552303,0,0,1.7936366,62.95816,84.612762)" style="opacity:.3;fill:url(#radialGradient19030);fill-opacity:1;fill-rule:evenodd;stroke:none"/><g style="opacity:.9" id="g9754" transform="translate(128,120)"><path style="fill:url(#linearGradient19032);fill-opacity:1;fill-rule:evenodd;stroke:url(#linearGradient19034);stroke-width:1px;stroke-linecap:butt;stroke-linejoin:round;stroke-opacity:1" id="path9756" d="m -42.5,47.000002 -10,-9.500001 10,-9.5 0,5.500001 12.5,-1e-6 c 3,0 5.5,-1.5 5.5,-9.999999 l 3,-2e-6 c 0,17.500001 -6.499721,17.999999 -13.5,17.999999 l -7.5,10e-7 0,5.500002 z"/><path style="fill:url(#linearGradient19036);fill-opacity:1;fill-rule:evenodd;stroke:none" id="path9758" d="m 35.96875,24 c -0.05045,3.975364 -0.634049,6.454414 -1.6875,7.96875 C 33.180404,33.551216 31.584528,34.000001 30,34 L 17.5,34 A 0.50721555,0.50721555 0 0 1 17,33.5 L 17,29.1875 8.25,37.5 17,45.8125 17,41.5 A 0.50721555,0.50721555 0 0 1 17.5,41 l 7.5,0 c 3.488065,0 6.69163,-0.148321 9.03125,-2.3125 2.288459,-2.116854 3.868516,-6.375255 3.9375,-14.6875 l -2,0 z" transform="translate(-60,0)"/><path style="opacity:.35;fill:none;stroke:url(#linearGradient19038);stroke-width:1px;stroke-linecap:butt;stroke-linejoin:miter;stroke-opacity:1" id="path9760" d="M 36.40625,24.5 C 36.304154,28.168029 35.774075,30.688048 34.6875,32.25 33.489412,33.972252 31.666035,34.500001 30,34.5 l -12.5,0 a 0.99630841,0.99630841 0 0 1 -1,-1 l 0,-3.1875 L 8.9375,37.5 16.5,44.6875 16.5,41.5 a 0.99630841,0.99630841 0 0 1 1,-1 l 7.5,0 c 3.476421,0 6.502496,-0.135093 8.6875,-2.15625 2.088898,-1.932258 3.615698,-5.965983 3.75,-13.84375 l -1.03125,0 z" transform="translate(-60,0)"/><path style="opacity:.3;fill:none;stroke:url(#linearGradient19040);stroke-width:1px;stroke-linecap:round;stroke-linejoin:miter;stroke-opacity:1" id="path9762" d="M -43.5,30.3125 -51.0625,37.5 m 28.5,-13 -1.03125,0 c -0.102096,3.668029 -0.632175,6.188048 -1.71875,7.75 -1.198088,1.722252 -3.021465,2.250001 -4.6875,2.25 l -12.5,0"/></g></g></svg>