<svg xmlns="http://www.w3.org/2000/svg" xmlns:svg="http://www.w3.org/2000/svg" xmlns:xlink="http://www.w3.org/1999/xlink" id="svg1" width="16" height="16" version="1.0"><metadata id="metadata162"/><defs id="defs3"><linearGradient id="linearGradient4734"><stop id="stop4736" offset="0" style="stop-color:#a9cbe0;stop-opacity:1"/><stop id="stop4738" offset="1" style="stop-color:#79bbe5;stop-opacity:1"/></linearGradient><linearGradient id="linearGradient2339"><stop id="stop2341" offset="0" style="stop-color:#fff;stop-opacity:1"/><stop id="stop2343" offset="1" style="stop-color:#fff;stop-opacity:0"/></linearGradient><linearGradient id="linearGradient2345" x1="25.851" x2="24.996" y1="37.625" y2="25.25" gradientUnits="userSpaceOnUse" xlink:href="#linearGradient2339"/><linearGradient id="linearGradient356"><stop id="stop357" offset="0" style="stop-color:#fffff3;stop-opacity:1"/><stop id="stop358" offset="1" style="stop-color:#fffff3;stop-opacity:0"/></linearGradient><linearGradient id="linearGradient311"><stop id="stop312" offset="0" style="stop-color:#b8cddb;stop-opacity:1"/><stop id="stop335" offset=".327" style="stop-color:#bacdd9;stop-opacity:1"/><stop id="stop313" offset="1" style="stop-color:#c4cbcf;stop-opacity:0"/></linearGradient><linearGradient id="linearGradient235"><stop id="stop236" offset="0" style="stop-color:#2a5979;stop-opacity:1"/><stop id="stop237" offset="1" style="stop-color:#6ba7ca;stop-opacity:1"/></linearGradient><linearGradient id="linearGradient253" x1="24.983" x2="24.983" y1="22.828" y2="8.374" gradientTransform="scale(1.068312,0.936056)" gradientUnits="userSpaceOnUse" xlink:href="#linearGradient235"/><linearGradient id="linearGradient320" x1="32.828" x2="60.071" y1="7.921" y2="7.868" gradientTransform="scale(0.750458,1.33252)" gradientUnits="userSpaceOnUse" xlink:href="#linearGradient311"/><linearGradient id="linearGradient355" x1="23.643" x2="28.443" y1="12.818" y2="25.232" gradientTransform="scale(0.806859,1.239374)" gradientUnits="userSpaceOnUse" xlink:href="#linearGradient356"/><linearGradient id="linearGradient4740" x1="24.588" x2="24.588" y1="1.899" y2="40.859" gradientUnits="userSpaceOnUse" xlink:href="#linearGradient4734"/><linearGradient id="linearGradient10087" x1="24.983" x2="24.983" y1="22.828" y2="8.374" gradientTransform="scale(1.068312,0.936056)" gradientUnits="userSpaceOnUse" xlink:href="#linearGradient235"/><linearGradient id="linearGradient10089" x1="32.828" x2="60.071" y1="7.921" y2="7.868" gradientTransform="scale(0.750458,1.33252)" gradientUnits="userSpaceOnUse" xlink:href="#linearGradient311"/><linearGradient id="linearGradient10091" x1="24.588" x2="24.588" y1="1.899" y2="40.859" gradientUnits="userSpaceOnUse" xlink:href="#linearGradient4734"/><linearGradient id="linearGradient10093" x1="23.643" x2="28.443" y1="12.818" y2="25.232" gradientTransform="scale(0.806859,1.239374)" gradientUnits="userSpaceOnUse" xlink:href="#linearGradient356"/><linearGradient id="linearGradient10095" x1="25.851" x2="24.996" y1="37.625" y2="25.25" gradientUnits="userSpaceOnUse" xlink:href="#linearGradient2339"/><linearGradient id="linearGradient15179" x1="25.851" x2="24.996" y1="37.625" y2="25.25" gradientTransform="matrix(0.34647181,0,0,0.34714239,-0.48541104,31.424372)" gradientUnits="userSpaceOnUse" xlink:href="#linearGradient2339"/><linearGradient id="linearGradient15183" x1="23.643" x2="28.443" y1="12.818" y2="25.232" gradientTransform="matrix(0.2795539,0,0,0.43023925,-0.48541104,31.424372)" gradientUnits="userSpaceOnUse" xlink:href="#linearGradient356"/><linearGradient id="linearGradient15186" x1="24.588" x2="24.588" y1="1.899" y2="40.859" gradientTransform="matrix(0.34647181,0,0,0.34714239,-0.48541104,31.424372)" gradientUnits="userSpaceOnUse" xlink:href="#linearGradient4734"/><linearGradient id="linearGradient15189" x1="32.828" x2="60.071" y1="7.921" y2="7.868" gradientTransform="matrix(0.26001254,0,0,0.46257418,-0.48541104,31.424372)" gradientUnits="userSpaceOnUse" xlink:href="#linearGradient311"/><linearGradient id="linearGradient15192" x1="24.983" x2="24.983" y1="22.828" y2="8.374" gradientTransform="matrix(0.37013999,0,0,0.32494472,-0.48541104,31.424372)" gradientUnits="userSpaceOnUse" xlink:href="#linearGradient235"/><radialGradient id="radialGradient7860" cx="37.375" cy="33.188" r="14.625" fx="37.375" fy="33.188" gradientTransform="matrix(1,0,0,0.226496,0,25.67067)" gradientUnits="userSpaceOnUse" xlink:href="#linearGradient4333"/><linearGradient id="linearGradient4333"><stop id="stop4335" offset="0" style="stop-color:#000;stop-opacity:1"/><stop id="stop4337" offset="1" style="stop-color:#000;stop-opacity:0"/></linearGradient><linearGradient id="linearGradient7862" x1="18.188" x2="32.938" y1="18.538" y2="18.392" gradientTransform="matrix(1,0,0,0.415008,6.5485,26.7669)" gradientUnits="userSpaceOnUse" xlink:href="#linearGradient1813"/><linearGradient id="linearGradient1813"><stop id="stop1815" offset="0" style="stop-color:#000;stop-opacity:1"/><stop id="stop1817" offset="1" style="stop-color:#000;stop-opacity:0"/></linearGradient><linearGradient id="linearGradient7864" x1="28.079" x2="30.432" y1="12.338" y2="14.691" gradientTransform="translate(6.39225,12.18459)" gradientUnits="userSpaceOnUse" xlink:href="#linearGradient6445"/><linearGradient id="linearGradient6445"><stop id="stop6447" offset="0" style="stop-color:#fcaf3e;stop-opacity:1"/><stop id="stop6449" offset="1" style="stop-color:#ce5c00;stop-opacity:1"/></linearGradient><linearGradient id="linearGradient7866" x1="23.448" x2="22.81" y1="21.481" y2="22.119" gradientTransform="translate(6.39225,12.18459)" gradientUnits="userSpaceOnUse" xlink:href="#linearGradient2301"/><linearGradient id="linearGradient2301"><stop id="stop2303" offset="0" style="stop-color:#ce5c00;stop-opacity:1"/><stop id="stop2305" offset="1" style="stop-color:#ce5c00;stop-opacity:1"/></linearGradient><linearGradient id="linearGradient7868" x1="26.379" x2="25.485" y1="34.39" y2="32.714" gradientUnits="userSpaceOnUse" xlink:href="#linearGradient6437"/><linearGradient id="linearGradient6437"><stop id="stop6439" offset="0" style="stop-color:#e9b96e;stop-opacity:1"/><stop id="stop6441" offset="1" style="stop-color:#fff;stop-opacity:1"/></linearGradient><radialGradient id="radialGradient7870" cx="-138.837" cy="128.001" r="9.127" fx="-138.837" fy="128.001" gradientTransform="matrix(0.320394,-0.3203948,0.322414,0.3224148,50.518433,-74.157887)" gradientUnits="userSpaceOnUse" xlink:href="#linearGradient4117-1-0"/><linearGradient id="linearGradient4117-1-0"><stop id="stop4121-0-5" offset="0" style="stop-color:#f9a9a9;stop-opacity:1"/><stop id="stop4119-1-6" offset="1" style="stop-color:#ab5f5f;stop-opacity:1"/></linearGradient><linearGradient id="linearGradient10952" x1="-158.75" x2="-158.75" y1="115.938" y2="134.25" gradientTransform="matrix(0.1892115,-0.1892253,0.1892115,0.1892253,49.738733,-37.732231)" gradientUnits="userSpaceOnUse" xlink:href="#linearGradient4099-6-7"/><linearGradient id="linearGradient4099-6-7"><stop id="stop4101-1-8" offset="0" style="stop-color:#ddd;stop-opacity:1"/><stop id="stop4107-2-2" offset=".345" style="stop-color:#fff;stop-opacity:1"/><stop id="stop4109-5-7" offset=".727" style="stop-color:#737373;stop-opacity:1"/><stop id="stop4103-9-2" offset="1" style="stop-color:#bbb;stop-opacity:1"/></linearGradient><linearGradient id="linearGradient17282" x1="-158.75" x2="-158.75" y1="115.938" y2="134.25" gradientTransform="matrix(0.1892115,-0.1892253,0.1892115,0.1892253,49.738733,-37.732231)" gradientUnits="userSpaceOnUse" xlink:href="#linearGradient4099-6-7"/></defs><g id="layer2" transform="translate(0,-32)" style="display:inline"><g id="g1197" transform="matrix(0.07486667,0,0,0.09133143,-0.79489109,27.868815)"><path id="path1196" d="m 32.706693,164.36026 c -10.3875,0 -18.75,8.3625 -18.75,18.75 0,10.3875 8.3625,18.75 18.75,18.75 l 172.499997,0 c 10.3875,0 18.75,-8.3625 18.75,-18.75 0,-10.3875 -8.3625,-18.75 -18.75,-18.75 l -172.499997,0 z" style="opacity:.04787233;fill-rule:evenodd;stroke-width:3pt"/><path id="path1195" d="m 32.706693,165.61026 c -9.695,0 -17.5,7.805 -17.5,17.5 0,9.695 7.805,17.5 17.5,17.5 l 172.499997,0 c 9.695,0 17.5,-7.805 17.5,-17.5 0,-9.695 -7.805,-17.5 -17.5,-17.5 l -172.499997,0 z" style="opacity:.04787233;fill-rule:evenodd;stroke-width:3pt"/><path id="path1194" d="m 32.706694,166.86026 c -9.0025,0 -16.25,7.2475 -16.25,16.25 0,9.0025 7.2475,16.25 16.25,16.25 l 172.499996,0 c 9.0025,0 16.25,-7.2475 16.25,-16.25 0,-9.0025 -7.2475,-16.25 -16.25,-16.25 l -172.499996,0 z" style="opacity:.04787233;fill-rule:evenodd;stroke-width:3pt"/><path id="path1193" d="m 32.706694,168.11026 c -8.31,0 -15,6.69 -15,15 0,8.31 6.69,15 15,15 l 172.499996,0 c 8.31,0 15,-6.69 15,-15 0,-8.31 -6.69,-15 -15,-15 l -172.499996,0 z" style="opacity:.04787233;fill-rule:evenodd;stroke-width:3pt"/><path id="path1192" d="m 32.707764,169.36026 c -7.6175,0 -13.75,6.1325 -13.75,13.75 0,7.6175 6.1325,13.75 13.75,13.75 l 172.498416,0 c 7.6175,0 13.75,-6.1325 13.75,-13.75 0,-7.6175 -6.1325,-13.75 -13.75,-13.75 l -172.498416,0 z" style="opacity:.04787233;fill-rule:evenodd;stroke-width:3pt"/><path id="path1191" d="m 32.706694,170.61026 c -6.925,0 -12.5,5.575 -12.5,12.5 0,6.925 5.575,12.5 12.5,12.5 l 172.499996,0 c 6.925,0 12.5,-5.575 12.5,-12.5 0,-6.925 -5.575,-12.5 -12.5,-12.5 l -172.499996,0 z" style="opacity:.04787233;fill-rule:evenodd;stroke-width:3pt"/><path id="path1190" d="m 32.706694,171.86026 c -6.2325,0 -11.25,5.0175 -11.25,11.25 0,6.2325 5.0175,11.25 11.25,11.25 l 172.499996,0 c 6.2325,0 11.25,-5.0175 11.25,-11.25 0,-6.2325 -5.0175,-11.25 -11.25,-11.25 l -172.499996,0 z" style="opacity:.04787233;fill-rule:evenodd;stroke-width:3pt"/><path id="path1189" d="m 32.706694,173.11026 c -5.54,0 -10,4.46 -10,10 0,5.54 4.46,10 10,10 l 172.499996,0 c 5.54,0 10,-4.46 10,-10 0,-5.54 -4.46,-10 -10,-10 l -172.499996,0 z" style="opacity:.04787233;fill-rule:evenodd;stroke-width:3pt"/></g><path id="path895" d="m 1.3920032,33.318419 c -0.1611013,0 -0.2824128,0.08166 -0.2824128,0.252276 l 0,11.462976 c 0,0.252423 0.1687682,0.420584 0.3981159,0.420584 l 13.0747907,0 c 0.230682,0 0.322325,-0.157175 0.322325,-0.377191 l 0,-10.033416 c 0,-0.188486 -0.138688,-0.290405 -0.311498,-0.290405 l -6.6208419,0 c -0.1167655,0 -0.24138,-0.06888 -0.3099125,-0.163603 L 6.7609699,33.478781 C 6.6854859,33.374451 6.5385091,33.318424 6.4098977,33.318424 l -5.0178945,-5e-6 z" style="fill:url(#linearGradient15192);fill-opacity:1;fill-rule:evenodd;stroke:#535557;stroke-width:.34680694;stroke-miterlimit:4;stroke-opacity:1"/><path id="path315" d="m 1.2686025,34.168967 0,9.806772 0.3356446,-1.518748 0.075791,-7.854096 c 0,-0.260504 0.1772084,-0.390536 0.4285713,-0.390536 l 4.021426,0 c 0.541049,0 1.0445598,1.106517 1.8424217,1.106517 2.0689969,0 6.7002089,0.03041 6.7002739,0 l 0,-0.357991 -6.7670276,-0.04339 C 7.2626047,34.913368 6.8210987,33.821824 6.3249255,33.821824 l -4.6331653,0 c -0.2824885,0 -0.4231577,0.122946 -0.4231577,0.347143 z" style="color:#000;fill:url(#linearGradient15189);fill-opacity:1;fill-rule:evenodd;stroke:none;stroke-width:.25pt;marker:none;visibility:visible;display:inline;overflow:visible"/><path id="rect337" d="m 2.1777285,37.081502 2.7486805,0 c 0.2569899,0 0.473963,-0.132195 0.5845558,-0.306181 0.047378,-0.07453 0.43932,-0.73793 0.4703958,-0.783231 0.1035212,-0.150912 0.2677939,-0.263452 0.4649589,-0.263452 l 7.9834845,0 c 0.27816,0 0.502094,0.223486 0.502094,0.501091 l 0,8.703848 c 0,0.277605 -0.223934,0.501091 -0.502094,0.501091 l -12.7920675,0 c -0.27816,0 -0.5020939,-0.223486 -0.5020939,-0.501091 l 0,-6.74621 c 0,-0.685386 0.3950874,-1.105865 1.0420859,-1.105865 z" style="color:#000;fill:url(#linearGradient15186);fill-opacity:1;fill-rule:evenodd;stroke:#535557;stroke-width:.34680688;stroke-linecap:butt;stroke-linejoin:round;stroke-miterlimit:4;stroke-opacity:1;stroke-dashoffset:0;marker:none;visibility:visible;display:inline;overflow:visible"/><path id="path349" d="m 6.6172611,36.19758 c -0.223966,0 -0.349604,0.09779 -0.4763988,0.260357 -0.1267948,0.162567 -0.270767,0.406786 -0.3681263,0.596651 -0.097359,0.189864 -0.197174,0.365946 -0.2923356,0.488169 -0.095162,0.122222 -0.1696267,0.173571 -0.2490266,0.173571 -0.4330897,0 -3.1727012,0 -3.3459371,0 -0.1587996,0 -0.2894669,0.08002 -0.400608,0.184419 -0.1111412,0.104397 -0.2057177,0.24517 -0.2057177,0.42308 10e-8,0.216963 0,6.725884 0,6.725884 l 0.3464718,0 c 0,0 10e-8,-6.508919 0,-6.725884 0,-0.03905 0.03535,-0.115245 0.097445,-0.173571 0.062095,-0.05833 0.1479724,-0.08679 0.1624087,-0.08679 0.1732359,0 2.9128474,0 3.3459371,0 0.223763,0 0.3931523,-0.141206 0.5197077,-0.303749 0.1265555,-0.162544 0.2274792,-0.363436 0.3248174,-0.553259 0.097338,-0.189822 0.2186815,-0.409363 0.31399,-0.531561 0.095308,-0.122198 0.1474027,-0.130179 0.2273722,-0.130179 0.4215408,0 8.0554701,0.04339 8.0554701,0.04339 l 0,-0.347142 c 0,0 -7.6108314,-0.04339 -8.0554701,-0.04339 z" style="color:#000;fill:url(#linearGradient15183);fill-opacity:1;fill-rule:evenodd;stroke:none;stroke-width:.25pt;marker:none;visibility:visible;display:inline;overflow:visible"/><rect id="rect459" width=".433" height=".434" x="1.43" y="33.979" rx=".5" ry=".434" style="color:#000;fill:#fffffd;fill-opacity:1;fill-rule:evenodd;stroke:none;stroke-width:.25pt;marker:none;visibility:visible;display:inline;overflow:visible"/><rect id="rect2337" width="13.151" height="8.201" x="1.433" y="36.892" rx=".152" ry=".152" style="opacity:.2857143;color:#000;fill:none;stroke:url(#linearGradient15179);stroke-width:.34680703;stroke-linecap:square;stroke-linejoin:round;stroke-miterlimit:4;stroke-opacity:1;stroke-dasharray:none;stroke-dashoffset:0;marker:none;visibility:visible;display:inline;overflow:visible"/></g><g id="g10273" transform="matrix(0.36450925,0,0,0.36450925,-1.8202736,-3.7401473)" style="display:inline;enable-background:new"><path id="path4331" d="m 52,33.1875 a 14.625,3.3125 0 1 1 -29.25,0 14.625,3.3125 0 1 1 29.25,0 z" transform="matrix(0.897436,0,0,0.981132,1.333333,1.688679)" style="opacity:.07000002;fill:url(#radialGradient7860);fill-opacity:1;stroke:none"/><g id="g10286"><path id="path2334" d="m 41.07975,28.46584 -15,4.472913 -0.125,0.06484 -0.09375,0.07781 -2.75,2.853178 7.4375,-0.842984 0.28125,-0.02594 0.1875,-0.07781 10.0625,-2.683193 0,-3.838821 0,7e-6 0,0 z" style="opacity:.4;fill:url(#linearGradient7862);fill-opacity:1;fill-rule:evenodd;stroke:none;display:inline"/><g id="g10289"><g id="g10291"><path id="path2273" d="m 25.89225,30.18459 19,-19 c 2.175049,0.359961 3.084719,1.732225 3.5,3.5 l -19,19 -4.616117,0.704505 1.116117,-4.204505 0,0 0,0 z" style="fill:url(#linearGradient7864);fill-opacity:1;fill-rule:evenodd;stroke:url(#linearGradient7866);stroke-width:1;stroke-linecap:butt;stroke-linejoin:round;stroke-miterlimit:4;stroke-opacity:1;stroke-dasharray:none"/><path id="path2313" d="m 26.792248,30.68459 18.49775,-18.397748 c 1.089745,0.178435 1.517261,0.987944 2,2 l -18.397748,18.49775 -3.300003,0.900001 1.200001,-3.000003 0,0 0,0 z" style="opacity:.28235294;fill:none;stroke:#fff;stroke-width:1.0000006;stroke-linecap:butt;stroke-linejoin:miter;stroke-miterlimit:4;stroke-opacity:1;stroke-dasharray:none;display:inline"/></g><g id="g10295"><path id="path2298" d="m 24.549577,34.633026 1.666322,-4.180309 c 0,0 1.199535,0.24536 1.932177,0.975089 0.732642,0.729729 0.998391,1.943828 0.998391,1.943828 l -4.59689,1.261392 z" style="fill:url(#linearGradient7868);fill-opacity:1;fill-rule:evenodd;stroke:none"/><path id="path5446" d="m 23,21.5 -5.5,1.5 2,-5" transform="translate(6.39225,12.18459)" style="fill:none;stroke:#e9b96e;stroke-width:1;stroke-linecap:round;stroke-linejoin:round;stroke-miterlimit:4;stroke-opacity:1;stroke-dasharray:none"/><path id="path2283" d="m 23.95475,33.68459 -0.90625,2.25 2.34375,-0.65625 c 0.002,-0.03184 0,-0.06141 0,-0.09375 0,-0.802125 -0.645308,-1.459801 -1.4375,-1.5 z" style="fill:#000;fill-opacity:1;fill-rule:evenodd;stroke:none;display:inline"/></g></g></g><path id="path4113-1" d="m 42.821682,13.147263 c 1.834152,-0.500531 3.885052,1.651475 3.449911,3.449919 L 48.46699,14.40178 c 1.066511,-2.466563 -1.132252,-4.4097129 -3.494714,-3.494723 l -2.150594,2.240206 0,0 z" style="fill:url(#radialGradient7870);fill-opacity:1;fill-rule:nonzero;stroke:#ef2929;stroke-width:.99999994;marker:none;visibility:visible;display:inline;overflow:visible;enable-background:new"/><path id="path4095-8" d="m 40.561976,15.25084 c 1.936448,-0.528484 4.101732,1.743706 3.642321,3.642586 l 2.317841,-2.31801 c 0.754457,-1.595776 -2.044633,-4.337495 -3.689625,-3.689891 l -2.270537,2.365315 0,0 z" style="fill:url(#linearGradient17282);fill-opacity:1;fill-rule:nonzero;stroke:#888a85;stroke-width:1;marker:none;visibility:visible;display:inline;overflow:visible;enable-background:new"/></g></svg>