<svg xmlns="http://www.w3.org/2000/svg" xmlns:svg="http://www.w3.org/2000/svg" xmlns:xlink="http://www.w3.org/1999/xlink" id="svg249" width="16" height="16" version="1.1"><defs id="defs3"><linearGradient id="linearGradient5816" x1="-26.754" x2="-24.75" y1="11.566" y2="9.688" gradientUnits="userSpaceOnUse" xlink:href="#linearGradient3656"/><linearGradient id="linearGradient5836" x1="-18.589" x2="-28.789" y1="11.053" y2="14.07" gradientTransform="matrix(0.9223058,0,0,0.9185751,-92.447368,61.3257)" gradientUnits="userSpaceOnUse" xlink:href="#linearGradient3520"/><radialGradient id="radialGradient5839" cx="-26.305" cy="10.108" r="7.042" fx="-26.305" fy="10.108" gradientTransform="matrix(0.4073362,-0.2798276,0.7510293,1.0932492,-115.18484,51.56213)" gradientUnits="userSpaceOnUse" xlink:href="#linearGradient3671"/><linearGradient id="linearGradient6469"><stop id="stop6471" offset="0" style="stop-color:#000;stop-opacity:1"/><stop id="stop6473" offset="1" style="stop-color:#000;stop-opacity:0"/></linearGradient><linearGradient id="linearGradient6475" x1="58.282" x2="61.181" y1="70.752" y2="67.799" gradientTransform="translate(-180,0)" gradientUnits="userSpaceOnUse" xlink:href="#linearGradient6469"/><radialGradient id="radialGradient5810" cx="4" cy="5.3" r="17" fx="4" fy="5.3" gradientTransform="matrix(1.8860258,0,0,1.1764706,-3.5441033,-4.2352941)" gradientUnits="userSpaceOnUse" xlink:href="#linearGradient3741"/><linearGradient id="linearGradient5845" x1="-47.5" x2="-62.75" y1="49.021" y2="-22.502" gradientTransform="translate(-90,60)" gradientUnits="userSpaceOnUse" xlink:href="#linearGradient3613"/><radialGradient id="radialGradient5843" cx="-30.25" cy="35.357" r="18" fx="-30.25" fy="35.357" gradientTransform="matrix(3.9957492,0,0,1.9350367,0.62141,28.832578)" gradientUnits="userSpaceOnUse" xlink:href="#linearGradient3683"/><linearGradient id="linearGradient5804" x1="25.058" x2="25.058" y1="47.028" y2="39.999" gradientUnits="userSpaceOnUse" xlink:href="#linearGradient3702"/><radialGradient id="radialGradient5802" cx="4.993" cy="43.5" r="2.5" fx="4.993" fy="43.5" gradientTransform="matrix(2.003784,0,0,1.4,-20.01187,-104.4)" gradientUnits="userSpaceOnUse" xlink:href="#linearGradient3688"/><radialGradient id="radialGradient5800" cx="4.993" cy="43.5" r="2.5" fx="4.993" fy="43.5" gradientTransform="matrix(2.003784,0,0,1.4,27.98813,-17.4)" gradientUnits="userSpaceOnUse" xlink:href="#linearGradient3688"/><linearGradient id="linearGradient5798" x1="25.058" x2="25.058" y1="47.028" y2="39.999" gradientUnits="userSpaceOnUse" xlink:href="#linearGradient3702"/><radialGradient id="radialGradient5796" cx="4.993" cy="43.5" r="2.5" fx="4.993" fy="43.5" gradientTransform="matrix(2.003784,0,0,1.4,-20.01187,-104.4)" gradientUnits="userSpaceOnUse" xlink:href="#linearGradient3688"/><radialGradient id="radialGradient5794" cx="4.993" cy="43.5" r="2.5" fx="4.993" fy="43.5" gradientTransform="matrix(2.003784,0,0,1.4,27.98813,-17.4)" gradientUnits="userSpaceOnUse" xlink:href="#linearGradient3688"/><linearGradient id="linearGradient3656"><stop id="stop3658" offset="0" style="stop-color:#fff;stop-opacity:1"/><stop id="stop3660" offset="1" style="stop-color:#fff;stop-opacity:0"/></linearGradient><linearGradient id="linearGradient3520"><stop id="stop3522" offset="0" style="stop-color:#000;stop-opacity:.41295546"/><stop id="stop3524" offset="1" style="stop-color:#000;stop-opacity:0"/></linearGradient><linearGradient id="linearGradient3671"><stop id="stop3673" offset="0" style="stop-color:#fff;stop-opacity:1"/><stop id="stop3691" offset=".475" style="stop-color:#fff;stop-opacity:1"/><stop id="stop3675" offset="1" style="stop-color:#fff;stop-opacity:0"/></linearGradient><linearGradient id="linearGradient3741"><stop id="stop3743" offset="0" style="stop-color:#fff;stop-opacity:1"/><stop id="stop3745" offset="1" style="stop-color:#fff;stop-opacity:0"/></linearGradient><linearGradient id="linearGradient3613"><stop id="stop3615" offset="0" style="stop-color:#888a85;stop-opacity:1"/><stop id="stop3617" offset="1" style="stop-color:#babdb6;stop-opacity:1"/></linearGradient><linearGradient id="linearGradient3683"><stop id="stop3685" offset="0" style="stop-color:#f6f6f5;stop-opacity:1"/><stop id="stop3689" offset="1" style="stop-color:#d3d7cf;stop-opacity:1"/></linearGradient><linearGradient id="linearGradient3688"><stop id="stop3690" offset="0" style="stop-color:#000;stop-opacity:1"/><stop id="stop3692" offset="1" style="stop-color:#000;stop-opacity:0"/></linearGradient><linearGradient id="linearGradient3702"><stop id="stop3704" offset="0" style="stop-color:#000;stop-opacity:0"/><stop id="stop3710" offset=".5" style="stop-color:#000;stop-opacity:1"/><stop id="stop3706" offset="1" style="stop-color:#000;stop-opacity:0"/></linearGradient><radialGradient id="radialGradient7860" cx="37.375" cy="33.188" r="14.625" fx="37.375" fy="33.188" gradientTransform="matrix(1,0,0,0.226496,0,25.67067)" gradientUnits="userSpaceOnUse" xlink:href="#linearGradient4333"/><linearGradient id="linearGradient4333"><stop id="stop4335" offset="0" style="stop-color:#000;stop-opacity:1"/><stop id="stop4337" offset="1" style="stop-color:#000;stop-opacity:0"/></linearGradient><linearGradient id="linearGradient7862" x1="18.188" x2="32.938" y1="18.538" y2="18.392" gradientTransform="matrix(1,0,0,0.415008,6.5485,26.7669)" gradientUnits="userSpaceOnUse" xlink:href="#linearGradient1813"/><linearGradient id="linearGradient1813"><stop id="stop1815" offset="0" style="stop-color:#000;stop-opacity:1"/><stop id="stop1817" offset="1" style="stop-color:#000;stop-opacity:0"/></linearGradient><linearGradient id="linearGradient7864" x1="28.079" x2="30.432" y1="12.338" y2="14.691" gradientTransform="translate(6.39225,12.18459)" gradientUnits="userSpaceOnUse" xlink:href="#linearGradient6445"/><linearGradient id="linearGradient6445"><stop id="stop6447" offset="0" style="stop-color:#fcaf3e;stop-opacity:1"/><stop id="stop6449" offset="1" style="stop-color:#ce5c00;stop-opacity:1"/></linearGradient><linearGradient id="linearGradient7866" x1="23.448" x2="22.81" y1="21.481" y2="22.119" gradientTransform="translate(6.39225,12.18459)" gradientUnits="userSpaceOnUse" xlink:href="#linearGradient2301"/><linearGradient id="linearGradient2301"><stop id="stop2303" offset="0" style="stop-color:#ce5c00;stop-opacity:1"/><stop id="stop2305" offset="1" style="stop-color:#ce5c00;stop-opacity:1"/></linearGradient><linearGradient id="linearGradient7868" x1="26.379" x2="25.485" y1="34.39" y2="32.714" gradientUnits="userSpaceOnUse" xlink:href="#linearGradient6437"/><linearGradient id="linearGradient6437"><stop id="stop6439" offset="0" style="stop-color:#e9b96e;stop-opacity:1"/><stop id="stop6441" offset="1" style="stop-color:#fff;stop-opacity:1"/></linearGradient><radialGradient id="radialGradient7870" cx="-138.837" cy="128.001" r="9.127" fx="-138.837" fy="128.001" gradientTransform="matrix(0.320394,-0.3203948,0.322414,0.3224148,50.518433,-74.157887)" gradientUnits="userSpaceOnUse" xlink:href="#linearGradient4117-1-0"/><linearGradient id="linearGradient4117-1-0"><stop id="stop4121-0-5" offset="0" style="stop-color:#f9a9a9;stop-opacity:1"/><stop id="stop4119-1-6" offset="1" style="stop-color:#ab5f5f;stop-opacity:1"/></linearGradient><linearGradient id="linearGradient7872" x1="-158.75" x2="-158.75" y1="115.938" y2="134.25" gradientTransform="matrix(0.1892115,-0.1892253,0.1892115,0.1892253,49.738733,-37.732231)" gradientUnits="userSpaceOnUse" xlink:href="#linearGradient4099-6-7"/><linearGradient id="linearGradient4099-6-7"><stop id="stop4101-1-8" offset="0" style="stop-color:#ddd;stop-opacity:1"/><stop id="stop4107-2-2" offset=".345" style="stop-color:#fff;stop-opacity:1"/><stop id="stop4109-5-7" offset=".727" style="stop-color:#737373;stop-opacity:1"/><stop id="stop4103-9-2" offset="1" style="stop-color:#bbb;stop-opacity:1"/></linearGradient><linearGradient id="linearGradient10952" x1="-158.75" x2="-158.75" y1="115.938" y2="134.25" gradientTransform="matrix(0.1892115,-0.1892253,0.1892115,0.1892253,49.738733,-37.732231)" gradientUnits="userSpaceOnUse" xlink:href="#linearGradient4099-6-7"/><linearGradient id="SVGID_1_" x1="187.994" x2="187.994" y1="1061" y2="1071" gradientTransform="translate(-182,-1060)" gradientUnits="userSpaceOnUse"><stop id="stop3404" offset="0" style="stop-color:#000;stop-opacity:.69999999"/><stop id="stop3406" offset="1" style="stop-color:#000;stop-opacity:.60000002"/></linearGradient></defs><metadata id="metadata4"/><g id="layer6" transform="translate(0,-32)"><g id="g6015" transform="matrix(0.33072917,0,0,0.33072917,49.609375,12.28125)" style="display:inline"><rect id="rect5504" width="48" height="48" x="-150" y="60" style="opacity:0;fill:#000;fill-opacity:1;stroke:none;display:inline"/><g id="g5508" transform="matrix(1.0464281,0,0,0.8888889,-151.18572,65.72224)" style="opacity:.65587045;display:inline"><g id="g5511" transform="matrix(1.052632,0,0,1.285713,-1.263158,-13.42854)" style="opacity:.4"><rect id="rect5513" width="5" height="7" x="38" y="40" style="fill:url(#radialGradient5794);fill-opacity:1;stroke:none"/><rect id="rect5515" width="5" height="7" x="-10" y="-47" transform="scale(-1,-1)" style="fill:url(#radialGradient5796);fill-opacity:1;stroke:none"/><rect id="rect5517" width="28" height="7" x="10" y="40" style="fill:url(#linearGradient5798);fill-opacity:1;stroke:none"/></g></g><g id="g5519" transform="matrix(0.9548466,0,0,0.5555562,-148.98776,79.888875)" style="display:inline"><g id="g5521" transform="matrix(1.052632,0,0,1.285713,-1.263158,-13.42854)" style="opacity:.4"><rect id="rect5523" width="5" height="7" x="38" y="40" style="fill:url(#radialGradient5800);fill-opacity:1;stroke:none"/><rect id="rect5525" width="5" height="7" x="-10" y="-47" transform="scale(-1,-1)" style="fill:url(#radialGradient5802);fill-opacity:1;stroke:none"/><rect id="rect5527" width="28" height="7" x="10" y="40" style="fill:url(#linearGradient5804);fill-opacity:1;stroke:none"/></g></g><path id="path5529" d="m -141.47614,63.5 c 0,0 17.47614,0 18.97614,0 3.87705,0.07294 6.5,2.5 9,5 2.5,2.5 4.60768,5.252625 5,9 0,1.5 0,24.97614 0,24.97614 0,1.12122 -0.90264,2.02386 -2.02385,2.02386 l -30.95229,0 c -1.12122,0 -2.02386,-0.90264 -2.02386,-2.02386 l 0,-36.952282 c 0,-1.121217 0.90264,-2.023858 2.02386,-2.023858 z" style="fill:url(#radialGradient5843);fill-opacity:1;stroke:url(#linearGradient5845);stroke-width:1;stroke-miterlimit:4;display:inline"/><path id="path5531" d="M 8.53125,4 C 7.6730803,4 7,4.6730802 7,5.53125 l 0,36.9375 C 7,43.32692 7.6730802,44 8.53125,44 l 30.9375,0 C 40.326919,44 41,43.326918 41,42.46875 L 41,17.5 c 0,-1.39197 -0.486979,-4.299479 -2.34375,-6.15625 l -5,-5 C 31.799479,4.4869792 28.89197,4 27.5,4 L 8.53125,4 z" transform="translate(-150,60)" style="opacity:.68016196;fill:url(#radialGradient5810);fill-opacity:1;stroke:none;display:inline"/><path id="rect5857" d="m -138.59375,69.125 c -0.21868,0 -0.40625,0.187565 -0.40625,0.40625 0,0.218684 0.18757,0.406249 0.40625,0.40625 l 21.1875,0 c 0.21868,0 0.40625,-0.187566 0.40625,-0.40625 0,-0.218684 -0.18757,-0.40625 -0.40625,-0.40625 l -21.1875,0 z m 0.0625,1.9375 c -0.25969,0 -0.46875,0.209063 -0.46875,0.46875 0,0.259687 0.20906,0.46875 0.46875,0.46875 l 22.0625,0 c 0.25969,0 0.46875,-0.209063 0.46875,-0.46875 0,-0.259687 -0.20906,-0.46875 -0.46875,-0.46875 l -22.0625,0 z m 0,2 c -0.25969,0 -0.46875,0.209063 -0.46875,0.46875 0,0.259687 0.20906,0.46875 0.46875,0.46875 l 25.1875,0 c 0.25969,0 0.46875,-0.209063 0.46875,-0.46875 0,-0.259687 -0.20906,-0.46875 -0.46875,-0.46875 l -25.1875,0 z m 0,2 c -0.25969,0 -0.46875,0.209063 -0.46875,0.46875 0,0.259687 0.20906,0.46875 0.46875,0.46875 l 25.1875,0 c 0.25969,0 0.46875,-0.209063 0.46875,-0.46875 0,-0.259687 -0.20906,-0.46875 -0.46875,-0.46875 l -25.1875,0 z m 0,2 c -0.25969,0 -0.46875,0.209063 -0.46875,0.46875 0,0.259687 0.20906,0.46875 0.46875,0.46875 l 25.1875,0 c 0.25969,0 0.46875,-0.209063 0.46875,-0.46875 0,-0.259687 -0.20906,-0.46875 -0.46875,-0.46875 l -25.1875,0 z" style="opacity:.15;fill:url(#linearGradient6475);fill-opacity:1;fill-rule:evenodd;stroke:none;stroke-width:.99999982px;marker:none;visibility:visible;display:inline;overflow:visible"/><path id="path5533" d="m -122.5,64 c -1.38889,0 -0.0421,0.497088 1.34375,1.125 1.38582,0.627912 4.97288,3.215052 4.15625,6.875 4.32331,-0.430583 6.67913,3.122378 7,4.28125 0.32087,1.158872 1,2.607639 1,1.21875 0.0283,-3.805581 -2.84543,-6.431701 -4.84375,-8.65625 C -115.84207,66.619201 -118.84621,64.476761 -122.5,64 z" style="fill:url(#radialGradient5839);fill-opacity:1;stroke:none;display:inline"/><path id="path5535" d="m -121.39912,65.014353 c 0.9223,0 3.00844,6.195662 2.08614,10.32925 4.29496,-0.427759 8.85338,0.08818 9.31298,0.937647 -0.32087,-1.158872 -2.67669,-4.711833 -7,-4.28125 0.86466,-3.875239 -3.18657,-6.617298 -4.39912,-6.985647 z" style="opacity:.87854249;fill:url(#linearGradient5836);fill-opacity:1;stroke:none;display:inline"/><path id="path5537" d="M -51.46875,4.5 C -52.051916,4.5 -52.5,4.9480842 -52.5,5.53125 l 0,36.9375 c 0,0.583165 0.448086,1.03125 1.03125,1.03125 l 30.9375,0 c 0.583165,0 1.03125,-0.448086 1.03125,-1.03125 L -19.5,17.5 c 0,-1.279029 -0.480469,-4.105469 -2.1875,-5.8125 l -5,-5 C -28.394531,4.9804687 -31.220971,4.5 -32.5,4.5 l -18.96875,0 z" transform="translate(-90,60)" style="fill:none;stroke:url(#linearGradient5816);stroke-width:1;stroke-miterlimit:4;display:inline"/><g id="g5539" transform="matrix(0.928889,0,0,1,-148.28889,60)" style="opacity:.15;fill:#000;display:inline"><rect id="rect5549" width="28.125" height=".938" x="10" y="19.063" rx=".505" ry=".469" style="fill:#000;fill-opacity:1;fill-rule:evenodd;stroke:none;stroke-width:.99999982px;marker:none;visibility:visible;display:inline;overflow:visible"/><rect id="rect5553" width="28.125" height=".938" x="10" y="21.063" rx=".505" ry=".469" style="fill:#000;fill-opacity:1;fill-rule:evenodd;stroke:none;stroke-width:.99999982px;marker:none;visibility:visible;display:inline;overflow:visible"/><rect id="rect5555" width="28.125" height=".938" x="10" y="23.063" rx=".505" ry=".469" style="fill:#000;fill-opacity:1;fill-rule:evenodd;stroke:none;stroke-width:.99999982px;marker:none;visibility:visible;display:inline;overflow:visible"/><rect id="rect5557" width="28.125" height=".938" x="10" y="25.063" rx=".505" ry=".469" style="fill:#000;fill-opacity:1;fill-rule:evenodd;stroke:none;stroke-width:.99999982px;marker:none;visibility:visible;display:inline;overflow:visible"/><rect id="rect5559" width="28.125" height=".938" x="10" y="27.063" rx=".505" ry=".469" style="fill:#000;fill-opacity:1;fill-rule:evenodd;stroke:none;stroke-width:.99999982px;marker:none;visibility:visible;display:inline;overflow:visible"/><rect id="rect5561" width="28.125" height=".938" x="10" y="29.063" rx=".505" ry=".469" style="fill:#000;fill-opacity:1;fill-rule:evenodd;stroke:none;stroke-width:.99999982px;marker:none;visibility:visible;display:inline;overflow:visible"/><rect id="rect5563" width="28.125" height=".938" x="10" y="31.063" rx=".505" ry=".469" style="fill:#000;fill-opacity:1;fill-rule:evenodd;stroke:none;stroke-width:.99999982px;marker:none;visibility:visible;display:inline;overflow:visible"/><rect id="rect5565" width="28.125" height=".938" x="10" y="33.063" rx=".505" ry=".469" style="fill:#000;fill-opacity:1;fill-rule:evenodd;stroke:none;stroke-width:.99999982px;marker:none;visibility:visible;display:inline;overflow:visible"/><rect id="rect5567" width="28.125" height=".938" x="10" y="35.063" rx=".505" ry=".469" style="fill:#000;fill-opacity:1;fill-rule:evenodd;stroke:none;stroke-width:.99999982px;marker:none;visibility:visible;display:inline;overflow:visible"/><rect id="rect5569" width="13.813" height=".938" x="10" y="37.063" rx=".505" ry=".469" style="fill:#000;fill-opacity:1;fill-rule:evenodd;stroke:none;stroke-width:.99999982px;marker:none;visibility:visible;display:inline;overflow:visible"/></g></g><g id="g10273" transform="matrix(0.36450925,0,0,0.36450925,-2.0576835,28.30505)" style="display:inline;enable-background:new"><path id="path4331" d="m 52,33.1875 a 14.625,3.3125 0 1 1 -29.25,0 14.625,3.3125 0 1 1 29.25,0 z" transform="matrix(0.897436,0,0,0.981132,1.333333,1.688679)" style="opacity:.07000002;fill:url(#radialGradient7860);fill-opacity:1;stroke:none"/><g id="g10286"><path id="path2334" d="m 41.07975,28.46584 -15,4.472913 -0.125,0.06484 -0.09375,0.07781 -2.75,2.853178 7.4375,-0.842984 0.28125,-0.02594 0.1875,-0.07781 10.0625,-2.683193 0,-3.838821 0,7e-6 0,0 z" style="opacity:.4;fill:url(#linearGradient7862);fill-opacity:1;fill-rule:evenodd;stroke:none;display:inline"/><g id="g10289"><g id="g10291"><path id="path2273" d="m 25.89225,30.18459 19,-19 c 2.175049,0.359961 3.084719,1.732225 3.5,3.5 l -19,19 -4.616117,0.704505 1.116117,-4.204505 0,0 0,0 z" style="fill:url(#linearGradient7864);fill-opacity:1;fill-rule:evenodd;stroke:url(#linearGradient7866);stroke-width:1;stroke-linecap:butt;stroke-linejoin:round;stroke-miterlimit:4;stroke-opacity:1;stroke-dasharray:none"/><path id="path2313" d="m 26.792248,30.68459 18.49775,-18.397748 c 1.089745,0.178435 1.517261,0.987944 2,2 l -18.397748,18.49775 -3.300003,0.900001 1.200001,-3.000003 0,0 0,0 z" style="opacity:.28235294;fill:none;stroke:#fff;stroke-width:1.0000006;stroke-linecap:butt;stroke-linejoin:miter;stroke-miterlimit:4;stroke-opacity:1;stroke-dasharray:none;display:inline"/></g><g id="g10295"><path id="path2298" d="m 24.549577,34.633026 1.666322,-4.180309 c 0,0 1.199535,0.24536 1.932177,0.975089 0.732642,0.729729 0.998391,1.943828 0.998391,1.943828 l -4.59689,1.261392 z" style="fill:url(#linearGradient7868);fill-opacity:1;fill-rule:evenodd;stroke:none"/><path id="path5446" d="m 23,21.5 -5.5,1.5 2,-5" transform="translate(6.39225,12.18459)" style="fill:none;stroke:#e9b96e;stroke-width:1;stroke-linecap:round;stroke-linejoin:round;stroke-miterlimit:4;stroke-opacity:1;stroke-dasharray:none"/><path id="path2283" d="m 23.95475,33.68459 -0.90625,2.25 2.34375,-0.65625 c 0.002,-0.03184 0,-0.06141 0,-0.09375 0,-0.802125 -0.645308,-1.459801 -1.4375,-1.5 z" style="fill:#000;fill-opacity:1;fill-rule:evenodd;stroke:none;display:inline"/></g></g></g><path id="path4113-1" d="m 42.821682,13.147263 c 1.834152,-0.500531 3.885052,1.651475 3.449911,3.449919 L 48.46699,14.40178 c 1.066511,-2.466563 -1.132252,-4.4097129 -3.494714,-3.494723 l -2.150594,2.240206 0,0 z" style="fill:url(#radialGradient7870);fill-opacity:1;fill-rule:nonzero;stroke:#ef2929;stroke-width:.99999994;marker:none;visibility:visible;display:inline;overflow:visible;enable-background:new"/><path id="path4095-8" d="m 40.561976,15.25084 c 1.936448,-0.528484 4.101732,1.743706 3.642321,3.642586 l 2.317841,-2.31801 c 0.754457,-1.595776 -2.044633,-4.337495 -3.689625,-3.689891 l -2.270537,2.365315 0,0 z" style="fill:url(#linearGradient10952);fill-opacity:1;fill-rule:nonzero;stroke:#888a85;stroke-width:1;marker:none;visibility:visible;display:inline;overflow:visible;enable-background:new"/></g></g><g id="g3401" transform="matrix(1.1691235,0,0,1.2,1.2426295,0.8)"><linearGradient id="linearGradient11905" x1="187.994" x2="187.994" y1="1061" y2="1071" gradientTransform="translate(-182,-1060)" gradientUnits="userSpaceOnUse"><stop id="stop11901" offset="0" style="stop-color:#000;stop-opacity:.69999999"/><stop id="stop11903" offset="1" style="stop-color:#000;stop-opacity:.60000002"/></linearGradient><path id="path3408" d="M 8,5 V 5 2.899 C 8,1.238 7.518,1 5.991,1 4.464,1 4,1.239 4,2.899 V 5 5 C 3,5 3,5 3,6 v 4 c 0,1 0,1 1,1 h 4 c 1,0 1,0 0.984,-1 V 6 C 8.984,5 9,5 8,5 Z M 5,2 H 5.992 7 V 5 H 5 Z m 0.992,0" style="fill:url(#SVGID_1_)"/></g></svg>