<svg xmlns="http://www.w3.org/2000/svg" xmlns:svg="http://www.w3.org/2000/svg" id="svg3881" width="16" height="16" version="1.1"><metadata id="metadata3886"/><g id="layer1"><g style="font-size:14px;font-style:normal;font-variant:normal;font-weight:400;font-stretch:normal;text-align:start;line-height:125%;letter-spacing:0;word-spacing:0;writing-mode:lr-tb;text-anchor:start;fill:#000;fill-opacity:1;stroke:none;font-family:Sans;-inkscape-font-specification:Sans" id="flowRoot4526" transform="matrix(1.520271,0,0,1.520271,2.2865164,-5.2328875)"><path id="path4554" d="m 2.6416016,12.21816 1.3876953,0 0,1.736328 -1.3876953,0 0,-1.736328 m 1.3466797,-1.004883 -1.3056641,0 0,-1.052734 C 2.6826145,9.7002607 2.7464165,9.3220059 2.8740234,9.0257773 3.0016246,8.7295586 3.2705045,8.3854834 3.6806641,7.9935508 L 4.2958984,7.3851523 C 4.5556595,7.1436227 4.7425082,6.9157583 4.8564453,6.7015586 4.9749299,6.4873733 5.0341746,6.2686235 5.0341797,6.0453086 5.0341746,5.6397179 4.8837841,5.3115933 4.5830078,5.0609336 4.2867795,4.8102917 3.8925742,4.6849663 3.4003906,4.684957 3.0403615,4.6849663 2.6552708,4.7647188 2.2451172,4.9242148 1.8395164,5.0837289 1.4156887,5.3161505 0.97363281,5.6214804 l 0,-1.2851562 C 1.4020168,4.0765684 1.8349591,3.8828837 2.2724609,3.7552695 2.7145155,3.6276757 3.1702442,3.5638736 3.6396484,3.5638633 c 0.8385372,1.03e-5 1.510737,0.2210388 2.0166016,0.6630859 0.5104105,0.4420666 0.7656185,1.0253993 0.765625,1.75 C 6.4218685,6.323311 6.3398374,6.6537143 6.1757812,6.9681601 6.0117127,7.2780626 5.7246036,7.6289737 5.3144531,8.0208945 L 4.7128906,8.6087851 C 4.4986934,8.822983 4.3460243,8.9916026 4.2548828,9.1146445 4.1682901,9.2331388 4.1067667,9.3493496 4.0703125,9.4632773 4.0429647,9.5589848 4.0224569,9.6751957 4.0087891,9.8119101 3.9951132,9.9486329 3.9882772,10.135482 3.9882813,10.372457 l 0,0.84082"/></g></g></svg>