<svg xmlns="http://www.w3.org/2000/svg" xmlns:svg="http://www.w3.org/2000/svg" xmlns:xlink="http://www.w3.org/1999/xlink" id="svg249" width="16" height="16" version="1.1"><defs id="defs3"><linearGradient id="linearGradient5816" x1="-26.754" x2="-24.75" y1="11.566" y2="9.688" gradientUnits="userSpaceOnUse" xlink:href="#linearGradient3656"/><linearGradient id="linearGradient5836" x1="-18.589" x2="-28.789" y1="11.053" y2="14.07" gradientTransform="matrix(0.9223058,0,0,0.9185751,-92.447368,61.3257)" gradientUnits="userSpaceOnUse" xlink:href="#linearGradient3520"/><radialGradient id="radialGradient5839" cx="-26.305" cy="10.108" r="7.042" fx="-26.305" fy="10.108" gradientTransform="matrix(0.4073362,-0.2798276,0.7510293,1.0932492,-115.18484,51.56213)" gradientUnits="userSpaceOnUse" xlink:href="#linearGradient3671"/><linearGradient id="linearGradient6469"><stop id="stop6471" offset="0" style="stop-color:#000;stop-opacity:1"/><stop id="stop6473" offset="1" style="stop-color:#000;stop-opacity:0"/></linearGradient><linearGradient id="linearGradient6475" x1="58.282" x2="61.181" y1="70.752" y2="67.799" gradientTransform="translate(-180,0)" gradientUnits="userSpaceOnUse" xlink:href="#linearGradient6469"/><radialGradient id="radialGradient5810" cx="4" cy="5.3" r="17" fx="4" fy="5.3" gradientTransform="matrix(1.8860258,0,0,1.1764706,-3.5441033,-4.2352941)" gradientUnits="userSpaceOnUse" xlink:href="#linearGradient3741"/><linearGradient id="linearGradient5845" x1="-47.5" x2="-62.75" y1="49.021" y2="-22.502" gradientTransform="translate(-90,60)" gradientUnits="userSpaceOnUse" xlink:href="#linearGradient3613"/><radialGradient id="radialGradient5843" cx="-30.25" cy="35.357" r="18" fx="-30.25" fy="35.357" gradientTransform="matrix(3.9957492,0,0,1.9350367,0.62141,28.832578)" gradientUnits="userSpaceOnUse" xlink:href="#linearGradient3683"/><linearGradient id="linearGradient5804" x1="25.058" x2="25.058" y1="47.028" y2="39.999" gradientUnits="userSpaceOnUse" xlink:href="#linearGradient3702"/><radialGradient id="radialGradient5802" cx="4.993" cy="43.5" r="2.5" fx="4.993" fy="43.5" gradientTransform="matrix(2.003784,0,0,1.4,-20.01187,-104.4)" gradientUnits="userSpaceOnUse" xlink:href="#linearGradient3688"/><radialGradient id="radialGradient5800" cx="4.993" cy="43.5" r="2.5" fx="4.993" fy="43.5" gradientTransform="matrix(2.003784,0,0,1.4,27.98813,-17.4)" gradientUnits="userSpaceOnUse" xlink:href="#linearGradient3688"/><linearGradient id="linearGradient5798" x1="25.058" x2="25.058" y1="47.028" y2="39.999" gradientUnits="userSpaceOnUse" xlink:href="#linearGradient3702"/><radialGradient id="radialGradient5796" cx="4.993" cy="43.5" r="2.5" fx="4.993" fy="43.5" gradientTransform="matrix(2.003784,0,0,1.4,-20.01187,-104.4)" gradientUnits="userSpaceOnUse" xlink:href="#linearGradient3688"/><radialGradient id="radialGradient5794" cx="4.993" cy="43.5" r="2.5" fx="4.993" fy="43.5" gradientTransform="matrix(2.003784,0,0,1.4,27.98813,-17.4)" gradientUnits="userSpaceOnUse" xlink:href="#linearGradient3688"/><linearGradient id="linearGradient3656"><stop id="stop3658" offset="0" style="stop-color:#fff;stop-opacity:1"/><stop id="stop3660" offset="1" style="stop-color:#fff;stop-opacity:0"/></linearGradient><linearGradient id="linearGradient3520"><stop id="stop3522" offset="0" style="stop-color:#000;stop-opacity:.41295546"/><stop id="stop3524" offset="1" style="stop-color:#000;stop-opacity:0"/></linearGradient><linearGradient id="linearGradient3671"><stop id="stop3673" offset="0" style="stop-color:#fff;stop-opacity:1"/><stop id="stop3691" offset=".475" style="stop-color:#fff;stop-opacity:1"/><stop id="stop3675" offset="1" style="stop-color:#fff;stop-opacity:0"/></linearGradient><linearGradient id="linearGradient3741"><stop id="stop3743" offset="0" style="stop-color:#fff;stop-opacity:1"/><stop id="stop3745" offset="1" style="stop-color:#fff;stop-opacity:0"/></linearGradient><linearGradient id="linearGradient3613"><stop id="stop3615" offset="0" style="stop-color:#888a85;stop-opacity:1"/><stop id="stop3617" offset="1" style="stop-color:#babdb6;stop-opacity:1"/></linearGradient><linearGradient id="linearGradient3683"><stop id="stop3685" offset="0" style="stop-color:#f6f6f5;stop-opacity:1"/><stop id="stop3689" offset="1" style="stop-color:#fefea8;stop-opacity:1"/></linearGradient><linearGradient id="linearGradient3688"><stop id="stop3690" offset="0" style="stop-color:#000;stop-opacity:1"/><stop id="stop3692" offset="1" style="stop-color:#000;stop-opacity:0"/></linearGradient><linearGradient id="linearGradient3702"><stop id="stop3704" offset="0" style="stop-color:#000;stop-opacity:0"/><stop id="stop3710" offset=".5" style="stop-color:#000;stop-opacity:1"/><stop id="stop3706" offset="1" style="stop-color:#000;stop-opacity:0"/></linearGradient><radialGradient id="radialGradient7860" cx="37.375" cy="33.188" r="14.625" fx="37.375" fy="33.188" gradientTransform="matrix(1,0,0,0.226496,0,25.67067)" gradientUnits="userSpaceOnUse" xlink:href="#linearGradient4333"/><linearGradient id="linearGradient4333"><stop id="stop4335" offset="0" style="stop-color:#000;stop-opacity:1"/><stop id="stop4337" offset="1" style="stop-color:#000;stop-opacity:0"/></linearGradient><linearGradient id="linearGradient7862" x1="18.188" x2="32.938" y1="18.538" y2="18.392" gradientTransform="matrix(1,0,0,0.415008,6.5485,26.7669)" gradientUnits="userSpaceOnUse" xlink:href="#linearGradient1813"/><linearGradient id="linearGradient1813"><stop id="stop1815" offset="0" style="stop-color:#000;stop-opacity:1"/><stop id="stop1817" offset="1" style="stop-color:#000;stop-opacity:0"/></linearGradient><linearGradient id="linearGradient7864" x1="28.079" x2="30.432" y1="12.338" y2="14.691" gradientTransform="translate(6.39225,12.18459)" gradientUnits="userSpaceOnUse" xlink:href="#linearGradient6445"/><linearGradient id="linearGradient6445"><stop id="stop6447" offset="0" style="stop-color:#fcaf3e;stop-opacity:1"/><stop id="stop6449" offset="1" style="stop-color:#ce5c00;stop-opacity:1"/></linearGradient><linearGradient id="linearGradient7866" x1="23.448" x2="22.81" y1="21.481" y2="22.119" gradientTransform="translate(6.39225,12.18459)" gradientUnits="userSpaceOnUse" xlink:href="#linearGradient2301"/><linearGradient id="linearGradient2301"><stop id="stop2303" offset="0" style="stop-color:#ce5c00;stop-opacity:1"/><stop id="stop2305" offset="1" style="stop-color:#ce5c00;stop-opacity:1"/></linearGradient><linearGradient id="linearGradient7868" x1="26.379" x2="25.485" y1="34.39" y2="32.714" gradientUnits="userSpaceOnUse" xlink:href="#linearGradient6437"/><linearGradient id="linearGradient6437"><stop id="stop6439" offset="0" style="stop-color:#e9b96e;stop-opacity:1"/><stop id="stop6441" offset="1" style="stop-color:#fff;stop-opacity:1"/></linearGradient><radialGradient id="radialGradient7870" cx="-138.837" cy="128.001" r="9.127" fx="-138.837" fy="128.001" gradientTransform="matrix(0.320394,-0.3203948,0.322414,0.3224148,50.518433,-74.157887)" gradientUnits="userSpaceOnUse" xlink:href="#linearGradient4117-1-0"/><linearGradient id="linearGradient4117-1-0"><stop id="stop4121-0-5" offset="0" style="stop-color:#f9a9a9;stop-opacity:1"/><stop id="stop4119-1-6" offset="1" style="stop-color:#ab5f5f;stop-opacity:1"/></linearGradient><linearGradient id="linearGradient7872" x1="-158.75" x2="-158.75" y1="115.938" y2="134.25" gradientTransform="matrix(0.1892115,-0.1892253,0.1892115,0.1892253,49.738733,-37.732231)" gradientUnits="userSpaceOnUse" xlink:href="#linearGradient4099-6-7"/><linearGradient id="linearGradient4099-6-7"><stop id="stop4101-1-8" offset="0" style="stop-color:#ddd;stop-opacity:1"/><stop id="stop4107-2-2" offset=".345" style="stop-color:#fff;stop-opacity:1"/><stop id="stop4109-5-7" offset=".727" style="stop-color:#737373;stop-opacity:1"/><stop id="stop4103-9-2" offset="1" style="stop-color:#bbb;stop-opacity:1"/></linearGradient><linearGradient id="linearGradient10952" x1="-158.75" x2="-158.75" y1="115.938" y2="134.25" gradientTransform="matrix(0.1892115,-0.1892253,0.1892115,0.1892253,49.738733,-37.732231)" gradientUnits="userSpaceOnUse" xlink:href="#linearGradient4099-6-7"/><linearGradient id="linearGradient11213" x1="-18.589" x2="-28.789" y1="11.053" y2="14.07" gradientTransform="matrix(0.30503343,0,0,0.30379958,19.034334,32.563448)" gradientUnits="userSpaceOnUse" xlink:href="#linearGradient3520"/><radialGradient id="radialGradient11216" cx="-26.305" cy="10.108" r="7.042" fx="-26.305" fy="10.108" gradientTransform="matrix(0.13471796,-0.09254715,0.2483873,0.3615694,11.514388,29.33435)" gradientUnits="userSpaceOnUse" xlink:href="#linearGradient3671"/><linearGradient id="linearGradient11219" x1="58.282" x2="61.181" y1="70.752" y2="67.799" gradientTransform="matrix(0.33072917,0,0,0.33072917,-9.9218756,12.28125)" gradientUnits="userSpaceOnUse" xlink:href="#linearGradient6469"/><radialGradient id="radialGradient11223" cx="-30.25" cy="35.357" r="18" fx="-30.25" fy="35.357" gradientTransform="matrix(1.3215108,0,0,0.63997308,49.814893,21.817025)" gradientUnits="userSpaceOnUse" xlink:href="#linearGradient3683"/><linearGradient id="linearGradient11225" x1="-47.5" x2="-62.75" y1="49.021" y2="-22.502" gradientTransform="matrix(0.33072917,0,0,0.33072917,19.84375,32.125)" gradientUnits="userSpaceOnUse" xlink:href="#linearGradient3613"/></defs><metadata id="metadata4"/><g id="layer6" transform="translate(0,-32)"><rect id="rect5504" width="15.875" height="15.875" x="0" y="32.125" style="opacity:0;fill:#000;fill-opacity:1;stroke:none;display:inline"/><g id="g5508" transform="matrix(0.3460843,0,0,0.29398149,-0.39215269,34.017512)" style="opacity:.65587045;display:inline"><g id="g5511" transform="matrix(1.052632,0,0,1.285713,-1.263158,-13.42854)" style="opacity:.4"><rect id="rect5513" width="5" height="7" x="38" y="40" style="fill:url(#radialGradient5794);fill-opacity:1;stroke:none"/><rect id="rect5515" width="5" height="7" x="-10" y="-47" transform="scale(-1,-1)" style="fill:url(#radialGradient5796);fill-opacity:1;stroke:none"/><rect id="rect5517" width="28" height="7" x="10" y="40" style="fill:url(#linearGradient5798);fill-opacity:1;stroke:none"/></g></g><g id="g5519" transform="matrix(0.31579562,0,0,0.18373864,0.3347768,38.702831)" style="display:inline"><g id="g5521" transform="matrix(1.052632,0,0,1.285713,-1.263158,-13.42854)" style="opacity:.4"><rect id="rect5523" width="5" height="7" x="38" y="40" style="fill:url(#radialGradient5800);fill-opacity:1;stroke:none"/><rect id="rect5525" width="5" height="7" x="-10" y="-47" transform="scale(-1,-1)" style="fill:url(#radialGradient5802);fill-opacity:1;stroke:none"/><rect id="rect5527" width="28" height="7" x="10" y="40" style="fill:url(#linearGradient5804);fill-opacity:1;stroke:none"/></g></g><path id="path5529" d="m 2.8190886,33.282552 c 0,0 5.7798693,0 6.2759631,0 1.2822533,0.02412 2.1497393,0.826823 2.9765623,1.653646 0.826823,0.826823 1.523894,1.737196 1.653646,2.976563 0,0.496093 0,8.260338 0,8.260338 0,0.37082 -0.298529,0.669349 -0.669346,0.669349 l -10.2368254,0 c -0.3708201,0 -0.6693495,-0.298529 -0.6693495,-0.669349 l 0,-12.221198 c 0,-0.370819 0.2985294,-0.669349 0.6693495,-0.669349 z" style="fill:url(#radialGradient11223);fill-opacity:1;stroke:url(#linearGradient11225);stroke-width:.33072916;stroke-miterlimit:4;display:inline"/><path id="path5531" d="M 8.53125,4 C 7.6730803,4 7,4.6730802 7,5.53125 l 0,36.9375 C 7,43.32692 7.6730802,44 8.53125,44 l 30.9375,0 C 40.326919,44 41,43.326918 41,42.46875 L 41,17.5 c 0,-1.39197 -0.486979,-4.299479 -2.34375,-6.15625 l -5,-5 C 31.799479,4.4869792 28.89197,4 27.5,4 L 8.53125,4 z" transform="translate(-150,60)" style="opacity:.68016196;fill:url(#radialGradient5810);fill-opacity:1;stroke:none;display:inline"/><path id="rect5857" d="m 3.7723791,35.142904 c -0.072324,0 -0.1343587,0.06203 -0.1343587,0.134359 0,0.07232 0.062035,0.134358 0.1343587,0.134358 l 7.0073239,0 c 0.07232,0 0.134359,-0.06203 0.134359,-0.134358 0,-0.07233 -0.06203,-0.134359 -0.134359,-0.134359 l -7.0073239,0 z m 0.020671,0.640788 c -0.085887,0 -0.1550293,0.06914 -0.1550293,0.155029 0,0.08589 0.069142,0.155029 0.1550293,0.155029 l 7.2967119,0 c 0.08589,0 0.155029,-0.06914 0.155029,-0.155029 0,-0.08589 -0.06914,-0.155029 -0.155029,-0.155029 l -7.2967119,0 z m 0,0.661458 c -0.085887,0 -0.1550293,0.06914 -0.1550293,0.155029 0,0.08589 0.069142,0.15503 0.1550293,0.15503 l 8.3302409,0 c 0.08589,0 0.155029,-0.06914 0.155029,-0.15503 0,-0.08589 -0.06914,-0.155029 -0.155029,-0.155029 l -8.3302409,0 z m 0,0.661458 c -0.085887,0 -0.1550293,0.06914 -0.1550293,0.15503 0,0.08589 0.069142,0.155029 0.1550293,0.155029 l 8.3302409,0 c 0.08589,0 0.155029,-0.06914 0.155029,-0.155029 0,-0.08589 -0.06914,-0.15503 -0.155029,-0.15503 l -8.3302409,0 z m 0,0.661459 c -0.085887,0 -0.1550293,0.06914 -0.1550293,0.155029 0,0.08589 0.069142,0.155029 0.1550293,0.155029 l 8.3302409,0 c 0.08589,0 0.155029,-0.06914 0.155029,-0.155029 0,-0.08589 -0.06914,-0.155029 -0.155029,-0.155029 l -8.3302409,0 z" style="opacity:.15;fill:url(#linearGradient11219);fill-opacity:1;fill-rule:evenodd;stroke:none;stroke-width:.99999982px;marker:none;visibility:visible;display:inline;overflow:visible"/><path id="path5533" d="m 9.0950517,33.447917 c -0.4593465,0 -0.013924,0.164401 0.4444173,0.37207 0.4583311,0.207669 1.644676,1.063312 1.374593,2.273763 1.429845,-0.142406 2.208983,1.032662 2.315104,1.415934 0.106121,0.383273 0.330729,0.862423 0.330729,0.403077 0.0094,-1.258617 -0.941066,-2.127151 -1.601969,-2.862875 -0.660903,-0.735723 -1.654459,-1.44429 -2.8628743,-1.601969 z" style="fill:url(#radialGradient11216);fill-opacity:1;stroke:none;display:inline"/><path id="path5535" d="m 9.4591448,33.783393 c 0.3050315,0 0.9949792,2.049086 0.6899472,3.416184 1.420469,-0.141472 2.928071,0.02916 3.080074,0.310107 -0.106121,-0.383272 -0.885259,-1.55834 -2.315104,-1.415934 0.285968,-1.281654 -1.0538915,-2.188533 -1.4549172,-2.310357 z" style="opacity:.87854249;fill:url(#linearGradient11213);fill-opacity:1;stroke:none;display:inline"/><path id="path5537" d="M -51.46875,4.5 C -52.051916,4.5 -52.5,4.9480842 -52.5,5.53125 l 0,36.9375 c 0,0.583165 0.448086,1.03125 1.03125,1.03125 l 30.9375,0 c 0.583165,0 1.03125,-0.448086 1.03125,-1.03125 L -19.5,17.5 c 0,-1.279029 -0.480469,-4.105469 -2.1875,-5.8125 l -5,-5 C -28.394531,4.9804687 -31.220971,4.5 -32.5,4.5 l -18.96875,0 z" transform="translate(-90,60)" style="fill:none;stroke:url(#linearGradient5816);stroke-width:1;stroke-miterlimit:4;display:inline"/><g id="g5539" transform="matrix(0.30721069,0,0,0.33072917,0.56591349,32.125)" style="opacity:.15;fill:#000;display:inline"><rect id="rect5549" width="28.125" height=".938" x="10" y="19.063" rx=".505" ry=".469" style="fill:#000;fill-opacity:1;fill-rule:evenodd;stroke:none;stroke-width:.99999982px;marker:none;visibility:visible;display:inline;overflow:visible"/><rect id="rect5553" width="28.125" height=".938" x="10" y="21.063" rx=".505" ry=".469" style="fill:#000;fill-opacity:1;fill-rule:evenodd;stroke:none;stroke-width:.99999982px;marker:none;visibility:visible;display:inline;overflow:visible"/><rect id="rect5555" width="28.125" height=".938" x="10" y="23.063" rx=".505" ry=".469" style="fill:#000;fill-opacity:1;fill-rule:evenodd;stroke:none;stroke-width:.99999982px;marker:none;visibility:visible;display:inline;overflow:visible"/><rect id="rect5557" width="28.125" height=".938" x="10" y="25.063" rx=".505" ry=".469" style="fill:#000;fill-opacity:1;fill-rule:evenodd;stroke:none;stroke-width:.99999982px;marker:none;visibility:visible;display:inline;overflow:visible"/><rect id="rect5559" width="28.125" height=".938" x="10" y="27.063" rx=".505" ry=".469" style="fill:#000;fill-opacity:1;fill-rule:evenodd;stroke:none;stroke-width:.99999982px;marker:none;visibility:visible;display:inline;overflow:visible"/><rect id="rect5561" width="28.125" height=".938" x="10" y="29.063" rx=".505" ry=".469" style="fill:#000;fill-opacity:1;fill-rule:evenodd;stroke:none;stroke-width:.99999982px;marker:none;visibility:visible;display:inline;overflow:visible"/><rect id="rect5563" width="28.125" height=".938" x="10" y="31.063" rx=".505" ry=".469" style="fill:#000;fill-opacity:1;fill-rule:evenodd;stroke:none;stroke-width:.99999982px;marker:none;visibility:visible;display:inline;overflow:visible"/><rect id="rect5565" width="28.125" height=".938" x="10" y="33.063" rx=".505" ry=".469" style="fill:#000;fill-opacity:1;fill-rule:evenodd;stroke:none;stroke-width:.99999982px;marker:none;visibility:visible;display:inline;overflow:visible"/><rect id="rect5567" width="28.125" height=".938" x="10" y="35.063" rx=".505" ry=".469" style="fill:#000;fill-opacity:1;fill-rule:evenodd;stroke:none;stroke-width:.99999982px;marker:none;visibility:visible;display:inline;overflow:visible"/><rect id="rect5569" width="13.813" height=".938" x="10" y="37.063" rx=".505" ry=".469" style="fill:#000;fill-opacity:1;fill-rule:evenodd;stroke:none;stroke-width:.99999982px;marker:none;visibility:visible;display:inline;overflow:visible"/></g></g></svg>