<svg xmlns="http://www.w3.org/2000/svg" xmlns:svg="http://www.w3.org/2000/svg" id="Layer_1" width="16" height="16" x="0" y="0" enable-background="new 0 0 16 16" version="1.1" viewBox="0 0 16 16" xml:space="preserve"><metadata id="metadata7399"/><linearGradient id="SVGID_1_" x1="8.001" x2="8.001" y1=".582" y2="15.418" gradientUnits="userSpaceOnUse"><stop style="stop-color:#020202;stop-opacity:.7" id="stop7389" offset="0"/><stop style="stop-color:#000;stop-opacity:.6" id="stop7391" offset="1"/></linearGradient><path style="fill:url(#SVGID_1_)" id="path7393" d="m 6.40625,0.59375 c -3.208,0 -5.8125,2.6045 -5.8125,5.8125 0,3.208 2.76075,5.96875 5.96875,5.96875 1.066,0 2.0775,-0.27925 2.9375,-0.78125 l 3.5625,3.5625 c 0.349,0.351 0.9,0.351 1.25,0 l 0.90625,-0.875 c 0.35,-0.349 0.225,-0.80825 -0.125,-1.15625 L 11.53125,9.59375 C 12.06525,8.71475 12.375,7.6675 12.375,6.5625 12.375,3.3545 9.61425,0.59375 6.40625,0.59375 z m 0,1.78125 c 2.222,0 4.1875,1.9665 4.1875,4.1875 0,2.221 -1.81125,4.03125 -4.03125,4.03125 -2.22,0 -4.1875,-1.9685 -4.1875,-4.1875 0,-2.222 1.81125,-4.03125 4.03125,-4.03125 z"/></svg>