<svg xmlns="http://www.w3.org/2000/svg" xmlns:svg="http://www.w3.org/2000/svg" id="Layer_1" width="16" height="16" x="0" y="0" enable-background="new 0 0 16 16" version="1.1" viewBox="0 0 16 16" xml:space="preserve"><metadata id="metadata3392"/><linearGradient id="SVGID_1_" x1="8" x2="8" y1="1" y2="15.001" gradientUnits="userSpaceOnUse"><stop style="stop-color:#010101;stop-opacity:.7" id="stop3382" offset="0"/><stop style="stop-color:#010101;stop-opacity:.6" id="stop3384" offset="1"/></linearGradient><path id="path3386" fill="url(#SVGID_1_)" d="M13.073,1H2.667C1.706,1,1,1.874,1,2.833v10.797C1,14.589,1.623,15,2.583,15h10.708 C14.252,15,15,14.417,15,13.459V3.189L13.073,1z M12,8c0,0.479-0.125,1-1.292,1H5.087C4.308,9,4,8.51,4,8V2h8V8z M11,3H7v3h4V3z"/><path style="fill:#fff;fill-opacity:1;fill-rule:evenodd;stroke:#000;stroke-width:0;stroke-linecap:butt;stroke-linejoin:miter;stroke-miterlimit:1.79999995;stroke-dasharray:none;stroke-opacity:1" id="path3398" d="M 0.4348963,13.726458 13.538913,0.60830396 15.479745,2.5470444 2.3757284,15.665201 Z"/></svg>