<svg xmlns="http://www.w3.org/2000/svg" xmlns:svg="http://www.w3.org/2000/svg" id="svg2" width="64" height="64" version="1.1" viewBox="0 0 64 64"><metadata id="metadata10"/><path id="path4" d="m 24.0226,41.78531 6.19209,0 0,-12.38418 9.288136,0 -12.384181,-12.384181 -12.384181,12.384181 9.288136,0 z m 9.288136,-6.966101 0,4.774876 14.177564,5.28727 -20.369655,7.596148 -20.3696558,-7.596148 14.1775648,-5.28727 0,-4.774876 -18.5762713,6.966101 0,12.384181 24.7683623,9.288136 24.768361,-9.288136 0,-12.384181 z" style="opacity:1;fill:#000"/><path id="path4198" d="m 63.457627,20.440678 -4.543897,0 C 57.669705,12.416101 51.312713,6.0591096 43.288136,4.8150844 l 0,-4.54389788 -5.762712,0 0,4.54389788 C 29.500847,6.0591096 23.143856,12.416101 21.899831,20.440678 l -4.543898,0 0,5.762712 4.543898,0 c 1.244025,8.024577 7.601016,14.381568 15.625593,15.625593 l 0,4.543898 5.762712,0 0,-4.543898 C 51.312713,40.584958 57.669705,34.227967 58.91373,26.20339 l 4.543897,0 0,-5.762712 z m -10.408177,0 -4.491314,0 c -0.868009,-2.455636 -2.814364,-4.401991 -5.27,-5.27 l 0,-4.491314 c 4.840678,1.102839 8.659195,4.921356 9.761314,9.761314 z M 40.406781,26.20339 c -1.591229,0 -2.881357,-1.290128 -2.881357,-2.881357 0,-1.591228 1.290128,-2.881355 2.881357,-2.881355 1.591228,0 2.881355,1.290127 2.881355,2.881355 0,1.591229 -1.290127,2.881357 -2.881355,2.881357 z m -2.881357,-15.524026 0,4.491314 c -2.455635,0.868009 -4.401991,2.814364 -5.27,5.27 l -4.491313,0 C 28.86695,15.6 32.685466,11.781483 37.525424,10.679364 Z m -9.761313,15.524026 4.491313,0 c 0.868009,2.455635 2.814365,4.401991 5.27,5.27 l 0,4.491313 C 32.684746,34.861864 28.86623,31.043348 27.764111,26.20339 Z m 15.524025,9.761313 0,-4.491313 c 2.455636,-0.868009 4.401991,-2.814365 5.27,-5.27 l 4.491314,0 c -1.102839,4.840678 -4.921356,8.659194 -9.761314,9.761313 z" style="fill:#000;opacity:.37"/></svg>