<svg xmlns="http://www.w3.org/2000/svg" xmlns:svg="http://www.w3.org/2000/svg" id="svg2" width="64" height="64" version="1.1" viewBox="0 0 64 64"><metadata id="metadata10"/><path id="path5511" d="m 23.554479,0.94915309 0,35.25423791 39.94189,0 0,-35.25423791 -39.94189,0 z M 61,33.685231 l -34.949152,0 0,-30.2179185 34.949152,0 0,30.2179185 z m -2.496368,-27.6997579 -29.956416,0 0,25.1815979 29.956416,0 0,-25.1815979 z m -17.474575,12.5907989 -2.49637,0 0,2.518159 -2.496367,0 0,2.518161 -2.496367,0 0,-2.518161 2.496367,0 0,-2.518159 2.496367,0 0,-2.518159 -2.496367,0 0,-2.518161 -2.496367,0 0,-2.518159 2.496367,0 0,2.518159 2.496367,0 0,2.518161 2.49637,0 0,2.518159 z m 9.985471,5.03632 -7.489104,0 0,-2.518161 7.489104,0 0,2.518161 z" style="opacity:.37;fill:#000"/><g id="g6304" transform="matrix(5.6154293,0,0,5.6154293,-26.50241,-3.7056109)"><linearGradient id="SVGID_1_" x1="306.003" x2="306.003" y1="-371.008" y2="-384.993" gradientTransform="matrix(0.62953686,0,0,-0.62953686,-183.71941,-230.59258)" gradientUnits="userSpaceOnUse"><stop id="stop6307" offset="0" style="stop-color:#000;stop-opacity:.7"/><stop id="stop6309" offset="1" style="stop-color:#000;stop-opacity:.6"/></linearGradient><path id="path6311" d="M 12.466935,6.9958927 6.002221,3.1053549 C 5.5325865,2.8050658 5.1460509,3.0247742 5.1460509,3.5951346 l 0,7.5550724 c 0,0.57036 0.3859061,0.789439 0.8555406,0.490409 L 12.466935,7.7500779 c 0,0 0.229152,-0.1573842 0.229152,-0.3770926 0,-0.2197084 -0.229152,-0.3770926 -0.229152,-0.3770926 z" style="fill:url(#SVGID_1_)"/></g></svg>