<svg xmlns="http://www.w3.org/2000/svg" xmlns:xlink="http://www.w3.org/1999/xlink" id="Layer_1" width="16" height="16" x="0" y="0" enable-background="new 0 0 16 16" version="1.1" viewBox="0 0 16 16" xml:space="preserve"><linearGradient id="SVGID_1_" x1="306" x2="306" y1="-371.053" y2="-384.948" gradientTransform="matrix(1 0 0 -1 -298 -370)" gradientUnits="userSpaceOnUse"><stop offset="0" style="stop-color:#000;stop-opacity:.7"/><stop offset="1" style="stop-color:#000;stop-opacity:.6"/></linearGradient><path fill="url(#SVGID_1_)" d="M14.999,8.747L13.6,7.218l0.992-1.82l-1.949-0.704l0.032-2.073l-2.053,0.283L9.689,1.054L8,2.258	L6.313,1.053L5.378,2.904L3.325,2.622l0.035,2.072L1.409,5.397l0.994,1.821L1.001,8.747l1.725,1.15l-0.527,2.004l2.062,0.216	l0.463,2.022l1.927-0.768L8,14.947l1.35-1.575l1.927,0.768l0.466-2.022l2.061-0.216l-0.529-2.006L14.999,8.747z M11.476,6.72	l-4.137,3.888h-0.21L4.523,8.465V8.254l1.151-1.123h0.209l1.35,1.359l3.095-3.098h0.209l0.938,1.117V6.72z"/></svg>