<svg xmlns="http://www.w3.org/2000/svg" xmlns:svg="http://www.w3.org/2000/svg" id="svg3881" width="16" height="16" version="1.1"><metadata id="metadata3886"/><g id="layer1"><path style="font-size:medium;font-style:normal;font-variant:normal;font-weight:400;font-stretch:normal;text-indent:0;text-align:start;text-decoration:none;line-height:normal;letter-spacing:normal;word-spacing:normal;text-transform:none;direction:ltr;block-progression:tb;writing-mode:lr-tb;text-anchor:start;baseline-shift:baseline;color:#000;fill:#000;fill-opacity:1;stroke:none;stroke-width:1;marker:none;visibility:visible;display:inline;overflow:visible;enable-background:accumulate;font-family:Sans;-inkscape-font-specification:Sans" id="rect3889" d="m 2.125,2.625 0,0.5 0,3.6875 0,0.5 0.5,0 6.78125,0 0.5,0 0,-0.5 0,-3.6875 0,-0.5 -0.5,0 -6.78125,0 -0.5,0 z m 1,1 5.78125,0 0,2.6875 -5.78125,0 0,-2.6875 z"/><path style="font-size:medium;font-style:normal;font-variant:normal;font-weight:400;font-stretch:normal;text-indent:0;text-align:start;text-decoration:none;line-height:normal;letter-spacing:normal;word-spacing:normal;text-transform:none;direction:ltr;block-progression:tb;writing-mode:lr-tb;text-anchor:start;baseline-shift:baseline;color:#000;fill:#000;fill-opacity:1;stroke:none;stroke-width:1;marker:none;visibility:visible;display:inline;overflow:visible;enable-background:accumulate;font-family:Sans;-inkscape-font-specification:Sans" id="rect3889-0" d="m 5.78125,8.875 0,0.5 0,3.6875 0,0.5 0.5,0 6.8125,0 0.5,0 0,-0.5 0,-3.6875 0,-0.5 -0.5,0 -6.8125,0 -0.5,0 z m 1,1 5.8125,0 0,2.6875 -5.8125,0 0,-2.6875 z"/><path style="font-size:medium;font-style:normal;font-variant:normal;font-weight:400;font-stretch:normal;text-indent:0;text-align:start;text-decoration:none;line-height:normal;letter-spacing:normal;word-spacing:normal;text-transform:none;direction:ltr;block-progression:tb;writing-mode:lr-tb;text-anchor:start;baseline-shift:baseline;color:#000;fill:#000;fill-opacity:1;stroke:none;stroke-width:.60000002;marker:none;visibility:visible;display:inline;overflow:visible;enable-background:accumulate;font-family:Sans;-inkscape-font-specification:Sans" id="rect4417" d="m 0.5,1.28125 -0.3125,0 0,0.40625 0.59375,0 0,-0.125 0.90625,0 0,-0.59375 -1.1875,0 z m 1.78125,0.28125 1.21875,0 0,-0.59375 -1.21875,0 z m 1.8125,0 1.1875,0 0,-0.59375 -1.1875,0 z m 1.8125,0 1.1875,0 0,-0.59375 -1.1875,0 z m 1.78125,0 1.21875,0 0,-0.59375 -1.21875,0 z m 1.8125,0 1.1875,0 0,-0.59375 -1.1875,0 z m 1.78125,0 1.21875,0 0,-0.59375 -1.21875,0 z m 1.8125,0 1.1875,0 0,-0.59375 -1.1875,0 z m 1.8125,-0.28125 -0.25,0 0,1.125 0.59375,0 0,-1.125 0,-0.3125 -0.28125,0 -0.0625,0 z M 0.1875,3.5 l 0.59375,0 0,-1.21875 -0.59375,0 z m 14.46875,0.71875 0.59375,0 L 15.25,3 14.65625,3 z m -14.46875,1.0625 0.59375,0 0,-1.1875 -0.59375,0 z M 14.65625,6 15.25,6 l 0,-1.1875 -0.59375,0 z M 0.1875,7.09375 l 0.59375,0 0,-1.21875 -0.59375,0 z m 14.46875,0.71875 0.59375,0 0,-1.21875 -0.59375,0 z M 0.1875,8.875 l 0.59375,0 0,-1.1875 -0.59375,0 z m 14.46875,0.71875 0.59375,0 0,-1.1875 -0.59375,0 z M 0.1875,10.6875 l 0.59375,0 0,-1.1875 -0.59375,0 z m 14.46875,0.71875 0.59375,0 0,-1.1875 -0.59375,0 z M 0.1875,12.5 l 0.59375,0 0,-1.21875 -0.59375,0 z m 14.46875,0.71875 0.59375,0 0,-1.21875 -0.59375,0 z m -14.46875,1.0625 0.59375,0 0,-1.1875 -0.59375,0 z m 14.46875,0.625 0.21875,0 0,0.3125 0.09375,0 0.28125,0 0,-0.3125 0,-1.09375 -0.59375,0 z M 0.5,14.875 l -0.3125,0 0,0.03125 0,0.3125 0.3125,0 1.15625,0 0,-0.59375 -1.15625,0 z m 1.78125,0.34375 1.1875,0 0,-0.59375 -1.1875,0 z m 1.78125,0 1.21875,0 0,-0.59375 -1.21875,0 z m 1.8125,0 1.1875,0 0,-0.59375 -1.1875,0 z m 1.78125,0 1.21875,0 0,-0.59375 -1.21875,0 z m 1.8125,0 1.1875,0 0,-0.59375 -1.1875,0 z m 1.8125,0 1.1875,0 0,-0.59375 -1.1875,0 z m 1.78125,0 1.21875,0 0,-0.59375 -1.21875,0 z"/></g></svg>