<svg xmlns="http://www.w3.org/2000/svg" xmlns:xlink="http://www.w3.org/1999/xlink" id="Layer_1" width="16" height="16" x="0" y="0" enable-background="new 0 0 16 16" version="1.1" viewBox="0 0 16 16" xml:space="preserve"><linearGradient id="SVGID_1_" x1="8.001" x2="8.001" y1=".582" y2="15.418" gradientUnits="userSpaceOnUse"><stop offset="0" style="stop-color:#020202;stop-opacity:.7"/><stop offset="1" style="stop-color:#000;stop-opacity:.6"/></linearGradient><path fill="url(#SVGID_1_)" d="M15.084,13.134l-3.548-3.549c0.534-0.879,0.844-1.91,0.844-3.015c0-3.208-2.78-5.988-5.988-5.988	c-3.208,0-5.809,2.602-5.809,5.81c0,3.208,2.779,5.987,5.987,5.987c1.066,0,2.065-0.289,2.925-0.791l3.567,3.566	c0.349,0.351,0.914,0.351,1.264,0l0.885-0.883C15.561,13.922,15.434,13.482,15.084,13.134z M2.37,6.392	c0-2.222,1.801-4.021,4.021-4.021c2.222,0,4.2,1.979,4.2,4.2c0,2.221-1.801,4.021-4.021,4.021C4.35,10.592,2.37,8.611,2.37,6.392z M7.018,3.764v2.109h2.019v1.079H7.018v2.131h-1.12V6.952H3.879V5.873h2.019V3.764H7.018z"/></svg>