<svg xmlns="http://www.w3.org/2000/svg" xmlns:xlink="http://www.w3.org/1999/xlink" id="Layer_1" width="16" height="16" x="0" y="0" enable-background="new 0 0 16 16" version="1.1" viewBox="0 0 16 16" xml:space="preserve"><linearGradient id="SVGID_1_" x1="305.994" x2="305.994" y1="-371.221" y2="-385" gradientTransform="matrix(1 0 0 -1 -298 -370)" gradientUnits="userSpaceOnUse"><stop offset="0" style="stop-color:#000;stop-opacity:.7"/><stop offset="1" style="stop-color:#000;stop-opacity:.6"/></linearGradient><path fill="url(#SVGID_1_)" d="M12.236,2.733L11.326,5H4.673L3.768,2.733c-0.583,0-0.757,0.216-0.757,0.798L3,13.943	C3,14.524,3.477,15,4.059,15h7.862c0.58,0,1.057-0.477,1.057-1.057l0.011-10.413C12.988,2.948,12.814,2.733,12.236,2.733z M9.684,3.726l1.124-1.122L9.754,2.733L9.208,1.221H6.789L6.246,2.733L5.192,2.604l1.123,1.122H9.684z"/></svg>