<svg xmlns="http://www.w3.org/2000/svg" xmlns:svg="http://www.w3.org/2000/svg" id="Layer_1" width="16" height="16" version="1.1" viewBox="0 0 16 16" xml:space="preserve"><metadata id="metadata3414"/><g id="g3401" transform="matrix(1.4118644,0,0,1.4118644,-0.32033896,-0.47966101)"><linearGradient id="SVGID_1_" x1="187.994" x2="187.994" y1="1061" y2="1071" gradientTransform="translate(-182,-1060)" gradientUnits="userSpaceOnUse"><stop id="stop3404" offset="0" style="stop-color:#000;stop-opacity:.69999999"/><stop id="stop3406" offset="1" style="stop-color:#000;stop-opacity:.60000002"/></linearGradient><path id="path3408" d="M 8,5 8,5 V 2.899 C 8,1.238 7.518,1 5.991,1 4.464,1 4,1.239 4,2.899 V 5 L 4,5 C 3,5 3,5 3,6 v 4 c 0,1 0,1 1,1 h 4 c 1,0 1,0 0.984,-1 V 6 C 8.984,5 9,5 8,5 z M 5,2 H 5.992 7 V 5 H 5 V 2 z m 0.992,0" style="fill:url(#SVGID_1_)"/></g></svg>