<svg xmlns="http://www.w3.org/2000/svg" xmlns:xlink="http://www.w3.org/1999/xlink" id="Layer_1" width="16" height="16" x="0" y="0" enable-background="new 0 0 16 16" version="1.1" viewBox="0 0 16 16" xml:space="preserve"><g><linearGradient id="SVGID_1_" x1="306" x2="306" y1="-371" y2="-385" gradientTransform="matrix(1 0 0 -1 -298 -370)" gradientUnits="userSpaceOnUse"><stop offset="0" style="stop-color:#000;stop-opacity:.7"/><stop offset="1" style="stop-color:#000;stop-opacity:.6"/></linearGradient><path fill="url(#SVGID_1_)" d="M8,1C4.135,1,1,4.135,1,8c0,3.865,3.135,7,7,7c3.865,0,7-3.135,7-7C15,4.135,11.865,1,8,1z M9.442,8 l2.547,2.551L10.55,11.99L8,9.442L5.448,11.99L4.01,10.551L6.561,8L4.01,5.452L5.448,4.01L8,6.558l2.551-2.548l1.439,1.438L9.442,8 z"/></g></svg>