<svg xmlns="http://www.w3.org/2000/svg" xmlns:svg="http://www.w3.org/2000/svg" id="Layer_1" width="16" height="16" version="1.1" viewBox="0 0 16 16" xml:space="preserve"><metadata id="metadata3499"/><linearGradient id="SVGID_1_" x1="5.999" x2="5.999" y1="1" y2="11.001" gradientTransform="matrix(1.3864407,0,0,1.3864407,-0.09152539,-0.2)" gradientUnits="userSpaceOnUse"><stop id="stop3489" offset="0" style="stop-color:#000;stop-opacity:.69999999"/><stop id="stop3491" offset="1" style="stop-color:#000;stop-opacity:.60000002"/></linearGradient><path id="path3493" d="M 11.022183,6.7322034 H 11 V 3.8192916 C 11,1.5164136 10.331736,1.1864407 8.2146407,1.1864407 6.0975458,1.1864407 5.4542373,1.5178 5.4542373,3.8192916 V 3.9593221 H 6.840678 V 2.5728814 h 1.3753491 1.3975322 v 4.159322 H 8.2271186 6.840678 5.4542373 l 0,0 c -1.3864407,0 -1.3864407,0 -1.3864407,1.3864407 v 5.5457619 c 0,1.386441 0,1.386441 1.3864407,1.386441 H 11 c 1.386441,0 1.386441,0 1.386441,-1.386441 V 8.1186441 c 0,-1.3864407 0,-1.3864407 -1.364258,-1.3864407 z" style="fill:url(#SVGID_1_)"/></svg>