<svg xmlns="http://www.w3.org/2000/svg" xmlns:svg="http://www.w3.org/2000/svg" id="Layer_1" width="16" height="16" x="0" y="0" enable-background="new 0 0 16 16" version="1.1" viewBox="0 0 16 16" xml:space="preserve"><metadata id="metadata7302"/><linearGradient id="SVGID_1_" x1="7.5" x2="7.5" y1="0" y2="15.001" gradientUnits="userSpaceOnUse"><stop style="stop-color:#000;stop-opacity:.7" id="stop7292" offset="0"/><stop style="stop-color:#000;stop-opacity:.6" id="stop7294" offset="1"/></linearGradient><g style="font-style:normal;font-variant:normal;font-weight:700;font-stretch:normal;font-size:5px;line-height:125%;font-family:'Helvetica Neue';-inkscape-font-specification:'Helvetica Neue Bold';letter-spacing:0;word-spacing:0;fill:#000;fill-opacity:1;stroke:none;stroke-width:1px;stroke-linecap:butt;stroke-linejoin:miter;stroke-opacity:1" id="flowRoot4154" transform="matrix(2.4138712,0,0,2.8837573,-1.136408,-7.0725707)"><path id="path4163" d="m 1.9910937,6.1869581 0.4650001,-1.31 0.01,0 0.45,1.31 -0.9250001,0 z m 0.075,-2.19 -1.35000005,3.57 0.78999995,0 0.28,-0.795 1.3350001,0 0.27,0.795 0.815,0 -1.335,-3.57 -0.805,0 z"/><path id="path4165" d="m 4.4138281,5.7769581 q 0.015,-0.25 0.125,-0.415 0.11,-0.165 0.28,-0.265 0.17,-0.1 0.38,-0.14 0.215,-0.045 0.43,-0.045 0.195,0 0.395,0.03 0.2,0.025 0.365,0.105 0.165,0.08 0.27,0.225 0.105,0.14 0.105,0.375 l 0,1.345 q 0,0.175 0.02,0.335 0.02,0.16 0.07,0.24 l -0.72,0 q -0.02,-0.06 -0.035,-0.12 -0.01,-0.065 -0.015,-0.13 -0.17,0.175 -0.4,0.245 -0.23,0.07 -0.47,0.07 -0.185,0 -0.345,-0.045 -0.16,-0.045 -0.28,-0.14 -0.12,-0.095 -0.19,-0.24 -0.065,-0.145 -0.065,-0.345 0,-0.22 0.075,-0.36 0.08,-0.145 0.2,-0.23 0.125,-0.085 0.28,-0.125 0.16,-0.045 0.32,-0.07 0.16,-0.025 0.315,-0.04 0.155,-0.015 0.275,-0.045 0.12,-0.03 0.19,-0.085 0.07,-0.06 0.065,-0.17 0,-0.115 -0.04,-0.18 -0.035,-0.07 -0.1,-0.105 -0.06,-0.04 -0.145,-0.05 -0.08,-0.015 -0.175,-0.015 -0.21,0 -0.33,0.09 -0.12,0.09 -0.14,0.3 l -0.71,0 z m 1.64,0.525 q -0.045,0.04 -0.115,0.065 -0.065,0.02 -0.145,0.035 -0.075,0.015 -0.16,0.025 -0.085,0.01 -0.17,0.025 -0.08,0.015 -0.16,0.04 -0.075,0.025 -0.135,0.07 -0.055,0.04 -0.09,0.105 -0.035,0.065 -0.035,0.165 0,0.095 0.035,0.16 0.035,0.065 0.095,0.105 0.06,0.035 0.14,0.05 0.08,0.015 0.165,0.015 0.21,0 0.325,-0.07 0.115,-0.07 0.17,-0.165 0.055,-0.1 0.065,-0.2 0.015,-0.1 0.015,-0.16 l 0,-0.265 z"/></g></svg>