<svg xmlns="http://www.w3.org/2000/svg" xmlns:svg="http://www.w3.org/2000/svg" id="Layer_1" width="16" height="16" x="0" y="0" enable-background="new 0 0 16 16" version="1.1" viewBox="0 0 16 16" xml:space="preserve"><metadata id="metadata10107"/><defs id="defs10105"><linearGradient id="SVGID_1_-9" x1="305.984" x2="305.984" y1="-371.03" y2="-385" gradientTransform="matrix(1,0,0,-1,-298,-370)" gradientUnits="userSpaceOnUse"><stop style="stop-color:#000;stop-opacity:.7" id="stop10097-1" offset="0"/><stop style="stop-color:#000;stop-opacity:.6" id="stop10099-2" offset="1"/></linearGradient></defs><linearGradient id="SVGID_1_" x1="305.984" x2="305.984" y1="-371.03" y2="-385" gradientTransform="matrix(1 0 0 -1 -298 -370)" gradientUnits="userSpaceOnUse"><stop style="stop-color:#000;stop-opacity:.7" id="stop10097" offset="0"/><stop style="stop-color:#000;stop-opacity:.6" id="stop10099" offset="1"/></linearGradient><path style="fill:#000;fill-opacity:1" id="path10101-7" d="M 12.408493,8.8887952 C 10.341601,5.9495103 6.6588512,5.4405909 4.0892474,7.7754763 3.0367521,8.7310176 2.3301952,10.019418 1.9934873,11.419668 L 0,11.034612 C 0.42249865,9.0646772 1.38617,7.2393543 2.8580101,5.9062472 6.3063187,2.7760049 11.244602,3.4833041 13.993127,7.4488879 L 15.896672,5.719667 15.508648,12.049964 9.8840182,11.178782 z"/><path id="path11781" d="m 8.4067796,10.881356 a 1.1186441,1.1525424 0 1 1 -2.2372882,0 1.1186441,1.1525424 0 1 1 2.2372882,0 z" transform="matrix(1.430303,0,0,1.3882353,-3.5700044,-4.7058824)"/></svg>